<svg width="655" height="683" viewBox="0 0 655 683" fill="none" xmlns="http://www.w3.org/2000/svg">
<g clip-path="url(#clip0)">
<path d="M620 635.614C620 661.294 481.21 682.114 310 682.114C138.79 682.114 0 661.294 0 635.614C0 617.434 69.57 601.684 170.96 594.044C212.77 590.884 260.01 589.114 310 589.114C330.55 589.114 350.63 589.414 370.05 589.984C512.52 594.184 620 613.013 620 635.614Z" fill="#3F3D56"/>
<path opacity="0.1" d="M270 645.114C335.722 645.114 389 638.622 389 630.614C389 622.605 335.722 616.114 270 616.114C204.278 616.114 151 622.605 151 630.614C151 638.622 204.278 645.114 270 645.114Z" fill="black"/>
<path d="M269.5 641.114C331.632 641.114 382 587.388 382 521.114C382 454.839 331.632 401.114 269.5 401.114C207.368 401.114 157 454.839 157 521.114C157 587.388 207.368 641.114 269.5 641.114Z" fill="#3F3D56"/>
<path d="M305 592.114H235V656.114H305V592.114Z" fill="#6C63FF"/>
<path d="M396.5 607.614L392.5 629.614L418.5 633.614L435.5 623.614L434.5 607.614H396.5Z" fill="#575A89"/>
<path d="M265.499 194.614C265.499 194.614 263.499 217.614 258.499 218.614C253.499 219.614 269.499 259.614 269.499 259.614H293.499L312.499 254.614L303.499 232.614C303.499 232.614 291.499 216.614 300.499 203.614C309.499 190.614 265.499 194.614 265.499 194.614Z" fill="#A0616A"/>
<path opacity="0.1" d="M265.499 194.614C265.499 194.614 263.499 217.614 258.499 218.614C253.499 219.614 269.499 259.614 269.499 259.614H293.499L312.499 254.614L303.499 232.614C303.499 232.614 291.499 216.614 300.499 203.614C309.499 190.614 265.499 194.614 265.499 194.614Z" fill="black"/>
<path d="M215.499 370.614C215.499 370.614 189.499 420.614 210.499 430.614C231.499 440.614 236.499 439.614 236.499 442.614C236.499 445.614 232.499 444.614 234.499 449.614C236.499 454.614 230.499 474.614 236.499 486.614C242.499 498.614 240.499 507.614 240.499 507.614C240.499 507.614 240.499 508.614 242.499 512.614C244.499 516.614 245.499 519.614 244.499 521.614C243.499 523.614 237.499 536.614 243.499 539.614C249.499 542.614 280.499 544.614 283.499 539.614C286.499 534.614 280.499 531.614 283.499 528.614C286.499 525.614 288.499 524.614 286.499 522.614C284.499 520.614 282.499 495.614 282.499 495.614C282.499 495.614 287.499 466.614 285.499 462.614C283.499 458.614 280.499 454.614 282.499 451.614C284.499 448.614 286.499 449.614 287.499 445.614C288.499 441.614 290.499 432.614 290.499 432.614L301.499 431.614L327.499 436.614C327.499 436.614 356.499 468.614 388.499 478.614C388.499 478.614 397.499 487.614 400.499 487.614C403.499 487.614 403.499 487.614 402.499 489.614C401.499 491.614 398.499 491.614 400.499 493.614C402.499 495.614 405.499 492.614 403.499 495.614C401.499 498.614 399.499 498.614 401.499 500.614C403.499 502.614 400.499 513.614 400.499 514.614C400.499 515.614 391.499 609.614 394.499 611.614C397.499 613.614 439.499 619.614 442.499 611.614C445.499 603.614 440.499 593.614 440.499 593.614C440.499 593.614 455.499 473.614 451.499 465.614C447.499 457.614 433.499 421.614 358.499 398.614C358.499 398.614 337.499 394.614 337.499 391.614C337.499 388.614 335.499 369.614 331.499 368.614C327.499 367.614 304.499 366.614 304.499 366.614L275.499 375.614L235.499 368.614L215.499 370.614Z" fill="#2F2E41"/>
<path d="M250.499 538.614L245.499 556.614C245.499 556.614 241.499 585.614 246.499 592.614C250.427 598.112 257.439 604.844 270.444 606.026C274.088 606.36 277.738 605.44 280.789 603.419C283.84 601.397 286.109 598.395 287.222 594.908C287.371 594.491 287.465 594.055 287.499 593.614C287.499 591.614 284.499 567.614 284.499 567.614L279.499 542.614L278.499 535.614L250.499 538.614Z" fill="#2F2E41"/>
<path d="M396.501 624.614C396.501 624.614 391.501 619.614 390.501 624.614C389.501 629.614 385.501 650.614 392.501 651.614C399.501 652.614 466.501 662.614 473.501 658.614C480.501 654.614 493.501 648.614 485.501 645.614C477.501 642.614 454.501 633.614 454.501 633.614C454.501 633.614 441.501 616.614 439.501 615.614C437.501 614.614 426.501 616.614 421.501 620.614C416.501 624.614 396.501 624.614 396.501 624.614Z" fill="#2F2E41"/>
<path d="M289.5 215.614C306.621 215.614 320.5 201.734 320.5 184.614C320.5 167.493 306.621 153.614 289.5 153.614C272.379 153.614 258.5 167.493 258.5 184.614C258.5 201.734 272.379 215.614 289.5 215.614Z" fill="#A0616A"/>
<path d="M286.5 254.614L274.5 241.614L261.198 215.614C261.198 215.614 251.5 212.614 249.5 217.614C247.5 222.614 211.5 238.614 211.5 238.614C211.5 238.614 220.5 322.614 216.5 330.614C212.5 338.614 205.5 370.614 211.5 373.614C217.5 376.614 245.5 373.614 254.5 377.614C263.5 381.614 289.5 381.614 296.5 376.614C303.5 371.614 305.5 367.614 312.5 370.614C318.459 373.168 332.39 285.853 336.401 259.833C336.739 257.647 336.459 255.411 335.591 253.377C334.724 251.343 333.304 249.592 331.493 248.323C322.521 242.029 306.361 231.183 303.5 232.614C299.5 234.614 286.5 254.614 286.5 254.614Z" fill="#575A89"/>
<path d="M329.5 250.614C331.848 251.201 333.96 252.492 335.553 254.315C337.146 256.137 338.143 258.404 338.41 260.809L346.5 333.614C346.5 333.614 326.5 376.614 316.5 347.614C306.5 318.614 329.5 250.614 329.5 250.614Z" fill="#575A89"/>
<path d="M327.5 340.614L349.5 334.614C349.5 334.614 353.5 362.614 357.5 362.614C361.5 362.614 343.5 378.614 334.5 376.614C325.5 374.614 312.5 367.614 311.5 362.614C310.5 357.614 320.5 336.614 320.5 336.614L327.5 340.614Z" fill="#575A89"/>
<path d="M266.098 197.986C268.205 193.338 267.839 187.917 269.582 183.12C270.515 180.551 272.03 178.233 274.007 176.347C275.984 174.461 278.371 173.057 280.98 172.245C283.59 171.434 286.352 171.237 289.05 171.67C291.748 172.102 294.31 173.153 296.535 174.739C298.777 176.338 301.025 178.583 303.761 178.278C306.708 177.95 309.336 174.662 312.045 175.867C315.048 177.202 314.237 182.584 317.279 183.827C318.88 184.481 320.773 183.474 321.696 182.011C322.504 180.474 322.944 178.771 322.982 177.035C323.402 172.77 323.781 168.256 321.931 164.39C321.153 163.08 320.475 161.712 319.903 160.3C319.579 158.981 319.45 157.622 319.518 156.266C319.501 151.253 319.135 146.024 316.612 141.691C313.812 136.884 308.637 133.81 303.239 132.469C297.84 131.128 292.184 131.334 286.64 131.803C277.477 132.579 267.921 134.241 260.702 139.938C259.721 140.655 258.876 141.542 258.209 142.557C257.575 143.764 257.127 145.059 256.88 146.399C255.32 152.755 252.979 158.894 249.913 164.676C248.438 167.127 247.232 169.731 246.317 172.441C245.552 175.196 245.603 178.335 247.206 180.702C248.511 182.63 250.597 183.657 252.236 185.233C253.859 186.794 254.619 189.797 256.418 190.979C257.988 192.012 259.869 191.283 261.471 192.377C263.527 193.782 263.676 196.861 266.098 197.986Z" fill="#2F2E41"/>
<path d="M291.5 269.614L294.5 263.614C294.5 263.614 338.5 276.614 347.5 288.614C347.5 288.614 369.5 274.614 381.5 276.614L393.5 278.614L356.5 311.614L309.5 307.614L291.5 269.614Z" fill="#F2F2F2"/>
<path d="M289.5 263.614L248.5 320.614L307.5 349.614C307.5 349.614 313.016 352.614 317.258 349.614L356.5 331.614L393.5 278.614L356.5 297.614C356.5 297.614 352.5 289.614 344.5 293.614L289.5 263.614Z" fill="#6C63FF"/>
<path d="M352.5 364.614L360.5 343.614C360.5 343.614 378.5 320.614 368.5 309.614C358.5 298.614 347.5 341.614 347.5 341.614L352.5 364.614Z" fill="#A0616A"/>
<path d="M260.197 361.262L277.654 347.11C277.654 347.11 304.764 336.245 301.632 321.713C298.501 307.18 267.411 338.858 267.411 338.858L260.197 361.262Z" fill="#A0616A"/>
<path opacity="0.1" d="M217.001 260.114H216.001C216.001 260.114 200.501 241.614 197.501 266.614C194.501 291.614 184.501 374.614 210.501 377.614C236.501 380.614 255.001 365.114 255.001 365.114C255.001 365.114 274.001 336.114 267.001 336.114C263.614 336.114 254.402 334.592 246.001 335.114C237.038 335.67 228.984 338.194 229.501 335.614C230.501 330.614 245.001 267.114 217.001 260.114Z" fill="black"/>
<path d="M215.501 240.614L211.501 238.614C211.501 238.614 195.501 241.614 192.501 266.614C189.501 291.614 179.501 374.614 205.501 377.614C231.501 380.614 266.501 373.614 266.501 373.614C266.501 373.614 273.501 335.614 266.501 335.614C259.501 335.614 223.501 340.614 224.501 335.614C225.501 330.614 243.501 247.614 215.501 240.614Z" fill="#575A89"/>
<path d="M338 353.114L349.027 336.213L356 364.114L338 372.114V353.114Z" fill="#575A89"/>
<path d="M111.473 112.114C126.384 112.114 138.473 100.025 138.473 85.1135C138.473 70.2018 126.384 58.1135 111.473 58.1135C96.561 58.1135 84.4727 70.2018 84.4727 85.1135C84.4727 100.025 96.561 112.114 111.473 112.114Z" fill="#F2F2F2"/>
<path d="M143.473 286.114H79.4727V350.114H143.473V286.114Z" fill="#F2F2F2"/>
<path d="M372.001 0L388.2 28.057L404.398 56.114H372.001H339.604L355.802 28.057L372.001 0Z" fill="#F2F2F2"/>
<path d="M493.236 168.229C492.849 180.199 489.934 189.794 484.491 197.013C479.047 204.232 472.58 207.842 465.089 207.843C458.988 207.843 453.641 204.31 449.047 197.244C444.452 190.179 442.154 179.31 442.155 164.638C442.155 161.395 442.232 158.306 442.387 155.372C442.54 152.438 442.734 149.658 442.966 147.032L447.02 108.924H420.263C415.63 157.109 411.827 185.777 408.854 194.928C405.88 204.078 400.842 208.653 393.738 208.654C390.532 208.575 387.472 207.293 385.167 205.063C383.83 203.879 382.773 202.412 382.072 200.77C381.371 199.127 381.043 197.349 381.112 195.565C381.112 192.014 383.912 187.053 389.51 180.681C395.108 174.31 398.216 168.499 398.834 163.248L405.784 108.924H394.549C391.382 108.943 388.265 109.717 385.456 111.183C382.872 112.37 380.623 114.181 378.912 116.453L373.931 123.866H369.877C373.66 112.129 378.312 103.307 383.835 97.399C389.355 91.4916 395.706 88.538 402.889 88.538H491.383V108.924H461.499C460.572 118.191 459.858 127.457 459.356 136.723C458.853 145.99 458.602 155.295 458.603 164.638C458.603 170.971 460.07 176.106 463.005 180.044C465.938 183.982 469.606 185.951 474.008 185.951C476.71 185.951 479.548 184.85 482.522 182.65C483.934 181.659 485.115 180.375 485.985 178.886C486.854 177.397 487.392 175.737 487.56 174.021C487.792 172.323 487.966 170.991 488.081 170.024C488.197 169.06 488.255 168.461 488.255 168.229L493.236 168.229Z" fill="#6C63FF"/>
<path opacity="0.1" d="M493.236 168.229C492.849 180.199 489.934 189.794 484.491 197.013C479.047 204.232 472.58 207.842 465.089 207.843C458.988 207.843 453.641 204.31 449.047 197.244C444.452 190.179 442.154 179.31 442.155 164.638C442.155 161.395 442.232 158.306 442.387 155.372C442.54 152.438 442.734 149.658 442.966 147.032L447.02 108.924H420.263C415.63 157.109 411.827 185.777 408.854 194.928C405.88 204.078 400.842 208.653 393.738 208.654C390.532 208.575 387.472 207.293 385.167 205.063C383.83 203.879 382.773 202.412 382.072 200.77C381.371 199.127 381.043 197.349 381.112 195.565C381.112 192.014 383.912 187.053 389.51 180.681C395.108 174.31 398.216 168.499 398.834 163.248L405.784 108.924H394.549C391.382 108.943 388.265 109.717 385.456 111.183C382.872 112.37 380.623 114.181 378.912 116.453L373.931 123.866H369.877C373.66 112.129 378.312 103.307 383.835 97.399C389.355 91.4916 395.706 88.538 402.889 88.538H491.383V108.924H461.499C460.572 118.191 459.858 127.457 459.356 136.723C458.853 145.99 458.602 155.295 458.603 164.638C458.603 170.971 460.07 176.106 463.005 180.044C465.938 183.982 469.606 185.951 474.008 185.951C476.71 185.951 479.548 184.85 482.522 182.65C483.934 181.659 485.115 180.375 485.985 178.886C486.854 177.397 487.392 175.737 487.56 174.021C487.792 172.323 487.966 170.991 488.081 170.024C488.197 169.06 488.255 168.461 488.255 168.229L493.236 168.229Z" fill="black"/>
<path d="M493.236 164.61C492.849 176.58 489.934 186.175 484.491 193.394C479.047 200.613 472.58 204.223 465.089 204.224C458.988 204.224 453.641 200.691 449.047 193.625C444.452 186.56 442.154 175.691 442.155 161.019C442.155 157.776 442.232 154.687 442.387 151.753C442.54 148.819 442.734 146.039 442.966 143.413L447.02 105.305H420.263C415.63 153.49 411.827 182.158 408.854 191.309C405.88 200.459 400.842 205.034 393.738 205.035C390.532 204.956 387.472 203.674 385.167 201.444C383.83 200.26 382.773 198.793 382.072 197.151C381.371 195.508 381.043 193.73 381.112 191.946C381.112 188.395 383.912 183.434 389.51 177.062C395.108 170.691 398.216 164.88 398.834 159.629L405.784 105.305H394.549C391.382 105.324 388.265 106.098 385.456 107.564C382.872 108.751 380.623 110.562 378.912 112.834L373.931 120.247H369.877C373.66 108.51 378.312 99.6879 383.835 93.78C389.355 87.8726 395.706 84.919 402.889 84.919H491.383V105.305H461.499C460.572 114.572 459.858 123.838 459.356 133.104C458.853 142.371 458.602 151.676 458.603 161.019C458.603 167.352 460.07 172.487 463.005 176.425C465.938 180.363 469.606 182.332 474.008 182.332C476.71 182.332 479.548 181.232 482.522 179.031C483.934 178.04 485.115 176.756 485.985 175.267C486.854 173.778 487.392 172.118 487.56 170.402C487.792 168.704 487.966 167.372 488.081 166.405C488.197 165.441 488.255 164.842 488.255 164.61H493.236Z" fill="#6C63FF"/>
</g>
<defs>
<clipPath id="clip0">
<rect width="654.237" height="682.114" fill="white"/>
</clipPath>
</defs>
</svg>
