<svg width="140" height="140" viewBox="0 0 140 140" fill="none" xmlns="http://www.w3.org/2000/svg">
<g filter="url(#filter0_d)">
<rect x="4" width="132" height="132" rx="66" fill="white"/>
<path d="M129.092 123.001C129.092 127.971 101.09 132 66.5462 132C32.0025 132 4 127.971 4 123.001C4 119.483 18.0366 116.435 38.4932 114.957C46.9289 114.346 56.4601 114.003 66.5462 114.003C70.6924 114.003 74.7438 114.061 78.662 114.171C107.407 114.984 129.092 118.628 129.092 123.001Z" fill="#3F3D56"/>
<path opacity="0.1" d="M58.4757 124.84C71.7359 124.84 82.4854 123.584 82.4854 122.034C82.4854 120.484 71.7359 119.228 58.4757 119.228C45.2156 119.228 34.4661 120.484 34.4661 122.034C34.4661 123.584 45.2156 124.84 58.4757 124.84Z" fill="black"/>
<path d="M58.3749 124.066C70.9107 124.066 81.0731 113.669 81.0731 100.844C81.0731 88.0188 70.9107 77.6219 58.3749 77.6219C45.839 77.6219 35.6766 88.0188 35.6766 100.844C35.6766 113.669 45.839 124.066 58.3749 124.066Z" fill="#3F3D56"/>
<path d="M65.5374 114.584H51.4141V126.969H65.5374V114.584Z" fill="#5059C9"/>
<path d="M83.9986 117.583L83.1915 121.84L88.4373 122.615L91.8673 120.679L91.6655 117.583H83.9986Z" fill="#575A89"/>
<path d="M57.5678 37.6609C57.5678 37.6609 57.1643 42.1117 56.1555 42.3052C55.1467 42.4988 58.3749 50.2394 58.3749 50.2394H63.2171L67.0506 49.2718L65.2348 45.0145C65.2348 45.0145 62.8136 41.9182 64.6295 39.4025C66.4453 36.8868 57.5678 37.6609 57.5678 37.6609Z" fill="#A0616A"/>
<path opacity="0.1" d="M57.5678 37.6609C57.5678 37.6609 57.1643 42.1117 56.1555 42.3052C55.1467 42.4988 58.3749 50.2394 58.3749 50.2394H63.2171L67.0506 49.2718L65.2348 45.0145C65.2348 45.0145 62.8136 41.9182 64.6295 39.4025C66.4453 36.8868 57.5678 37.6609 57.5678 37.6609Z" fill="black"/>
<path d="M47.4797 71.7197C47.4797 71.7197 42.2339 81.3956 46.4709 83.3307C50.7079 85.2659 51.7167 85.0724 51.7167 85.6529C51.7167 86.2335 50.9097 86.0399 51.3132 87.0075C51.7167 87.9751 50.5061 91.8454 51.7167 94.1676C52.9273 96.4898 52.5238 98.2315 52.5238 98.2315C52.5238 98.2315 52.5238 98.425 52.9273 99.199C53.3308 99.9731 53.5326 100.554 53.3308 100.941C53.1291 101.328 51.9185 103.843 53.1291 104.424C54.3396 105.005 60.5942 105.392 61.1995 104.424C61.8048 103.456 60.5942 102.876 61.1995 102.295C61.8048 101.715 62.2083 101.521 61.8048 101.134C61.4013 100.747 60.9978 95.9093 60.9978 95.9093C60.9978 95.9093 62.0066 90.2973 61.603 89.5232C61.1995 88.7492 60.5942 87.9751 60.9978 87.3946C61.4013 86.814 61.8048 87.0075 62.0066 86.2335C62.2083 85.4594 62.6119 83.7177 62.6119 83.7177L64.8312 83.5242L70.077 84.4918C70.077 84.4918 75.9281 90.6843 82.3845 92.6195C82.3845 92.6195 84.2004 94.3611 84.8057 94.3611C85.4109 94.3611 85.4109 94.3611 85.2092 94.7482C85.0074 95.1352 84.4021 95.1352 84.8057 95.5222C85.2092 95.9093 85.8145 95.3287 85.4109 95.9093C85.0074 96.4898 84.6039 96.4898 85.0074 96.8769C85.4109 97.2639 84.8057 99.3926 84.8057 99.5861C84.8057 99.7796 82.9898 117.97 83.5951 118.357C84.2004 118.744 92.6744 119.905 93.2797 118.357C93.8849 116.809 92.8761 114.874 92.8761 114.874C92.8761 114.874 95.9026 91.6519 95.0955 90.1038C94.2885 88.5557 91.4638 81.5891 76.3317 77.1382C76.3317 77.1382 72.0947 76.3641 72.0947 75.7836C72.0947 75.203 71.6911 71.5262 70.8841 71.3327C70.077 71.1392 65.4365 70.9457 65.4365 70.9457L59.5854 72.6873L51.515 71.3327L47.4797 71.7197Z" fill="#2F2E41"/>
<path d="M54.5414 104.23L53.5326 107.714C53.5326 107.714 52.7255 113.326 53.7343 114.68C54.5267 115.744 55.9415 117.047 58.5654 117.276C59.3008 117.341 60.0371 117.163 60.6527 116.771C61.2683 116.38 61.7262 115.799 61.9507 115.124C61.9808 115.044 61.9996 114.959 62.0066 114.874C62.0066 114.487 61.4013 109.842 61.4013 109.842L60.3925 105.005L60.1907 103.65L54.5414 104.23Z" fill="#2F2E41"/>
<path d="M83.9986 120.873C83.9986 120.873 82.9898 119.905 82.788 120.873C82.5862 121.84 81.7792 125.904 83.1915 126.098C84.6039 126.291 98.1219 128.226 99.5342 127.452C100.947 126.678 103.569 125.517 101.955 124.937C100.341 124.356 95.7008 122.614 95.7008 122.614C95.7008 122.614 93.0779 119.325 92.6743 119.131C92.2708 118.938 90.0514 119.325 89.0426 120.099C88.0338 120.873 83.9986 120.873 83.9986 120.873Z" fill="#2F2E41"/>
<path d="M62.4101 41.7247C65.8644 41.7247 68.6647 39.0388 68.6647 35.7257C68.6647 32.4125 65.8644 29.7267 62.4101 29.7267C58.9557 29.7267 56.1555 32.4125 56.1555 35.7257C56.1555 39.0388 58.9557 41.7247 62.4101 41.7247Z" fill="#A0616A"/>
<path d="M61.8048 49.2719L59.3836 46.7561L56.6999 41.7247C56.6999 41.7247 54.7431 41.1442 54.3396 42.1118C53.9361 43.0793 46.6726 46.1756 46.6726 46.1756C46.6726 46.1756 48.4885 62.4309 47.6814 63.9791C46.8744 65.5272 45.4621 71.7197 46.6726 72.3003C47.8832 72.8808 53.5325 72.3003 55.3484 73.0743C57.1643 73.8484 62.4101 73.8484 63.8224 72.8808C65.2347 71.9132 65.6383 71.1392 67.0506 71.7197C68.2529 72.2139 71.0638 55.3171 71.873 50.2818C71.9412 49.8589 71.8846 49.4261 71.7096 49.0325C71.5346 48.6389 71.2482 48.3001 70.8828 48.0545C69.0724 46.8365 65.8119 44.7377 65.2347 45.0145C64.4277 45.4015 61.8048 49.2719 61.8048 49.2719Z" fill="#575A89"/>
<path d="M70.4805 48.4977C70.9543 48.6113 71.3805 48.8613 71.7019 49.214C72.0233 49.5667 72.2244 50.0052 72.2784 50.4708L73.9105 64.5596C73.9105 64.5596 69.8752 72.8808 67.8576 67.2688C65.84 61.6568 70.4805 48.4977 70.4805 48.4977Z" fill="#575A89"/>
<path d="M70.077 65.9142L74.5158 64.7531C74.5158 64.7531 75.3228 70.1716 76.1299 70.1716C76.9369 70.1716 73.3052 73.2678 71.4894 72.8808C69.6735 72.4938 67.0506 71.1391 66.8488 70.1716C66.6471 69.204 68.6647 65.1401 68.6647 65.1401L70.077 65.9142Z" fill="#575A89"/>
<path d="M57.6885 38.3136C58.1138 37.4142 58.0399 36.365 58.3915 35.4367C58.5798 34.9396 58.8853 34.4911 59.2843 34.126C59.6832 33.761 60.1648 33.4893 60.6913 33.3323C61.2178 33.1753 61.775 33.1371 62.3194 33.2208C62.8638 33.3046 63.3807 33.5079 63.8297 33.8149C64.282 34.1242 64.7354 34.5588 65.2875 34.4997C65.882 34.4362 66.4123 33.8 66.9589 34.0331C67.5648 34.2916 67.4012 35.333 68.015 35.5735C68.338 35.7001 68.7198 35.5051 68.9062 35.2221C69.0691 34.9247 69.1579 34.5951 69.1656 34.2591C69.2503 33.4338 69.3268 32.5603 68.9536 31.8121C68.7966 31.5586 68.6598 31.294 68.5444 31.0207C68.4791 30.7654 68.4529 30.5024 68.4666 30.2399C68.4632 29.2698 68.3894 28.2579 67.8803 27.4196C67.3155 26.4894 66.2714 25.8945 65.1821 25.6349C64.0928 25.3754 62.9516 25.4152 61.8333 25.506C59.9845 25.6561 58.0564 25.9779 56.5998 27.0803C56.4018 27.219 56.2315 27.3907 56.0968 27.5872C55.9689 27.8206 55.8786 28.0712 55.8288 28.3306C55.5139 29.5606 55.0417 30.7486 54.423 31.8675C54.1254 32.3418 53.8822 32.8457 53.6976 33.3702C53.5431 33.9033 53.5535 34.5107 53.8769 34.9688C54.1401 35.3418 54.561 35.5406 54.8916 35.8456C55.2193 36.1477 55.3726 36.7288 55.7355 36.9576C56.0523 37.1574 56.4318 37.0164 56.755 37.2281C57.1699 37.4999 57.1998 38.0959 57.6885 38.3136Z" fill="#2F2E41"/>
<path d="M62.8136 52.1746L63.4189 51.0135C63.4189 51.0135 72.2964 53.5292 74.1123 55.8514C74.1123 55.8514 78.551 53.1422 80.9722 53.5292L83.3933 53.9162L75.9281 60.3023L66.4453 59.5282L62.8136 52.1746Z" fill="#F2F2F2"/>
<path d="M62.4101 51.0135L54.1378 62.0439L66.0418 67.6559C66.0418 67.6559 67.1546 68.2364 68.0105 67.6559L75.9281 64.1726L83.3933 53.9162L75.9281 57.593C75.9281 57.593 75.1211 56.0449 73.507 56.819L62.4101 51.0135Z" fill="#5059C9"/>
<path d="M75.1211 70.5587L76.7352 66.4948C76.7352 66.4948 80.3669 62.0439 78.3493 59.9152C76.3316 57.7866 74.1122 66.1078 74.1122 66.1078L75.1211 70.5587Z" fill="#A0616A"/>
<path d="M56.498 69.9101L60.02 67.1714C60.02 67.1714 65.4898 65.0689 64.8579 62.2566C64.2261 59.4444 57.9535 65.5745 57.9535 65.5745L56.498 69.9101Z" fill="#A0616A"/>
<path opacity="0.1" d="M47.7823 50.3362H47.5806C47.5806 50.3362 44.4533 46.7561 43.848 51.594C43.2427 56.4319 41.2251 72.4938 46.4709 73.0743C51.7167 73.6549 55.4493 70.6554 55.4493 70.6554C55.4493 70.6554 59.2828 65.0434 57.8704 65.0434C57.1871 65.0434 55.3286 64.749 53.6334 64.8499C51.8251 64.9575 50.2002 65.4461 50.3044 64.9466C50.5061 63.9791 53.4317 51.6908 47.7823 50.3362Z" fill="black"/>
<path d="M47.4797 46.5626L46.6727 46.1756C46.6727 46.1756 43.4445 46.7561 42.8392 51.5941C42.2339 56.432 40.2163 72.4938 45.4621 73.0743C50.7079 73.6549 57.7696 72.3003 57.7696 72.3003C57.7696 72.3003 59.1819 64.9467 57.7696 64.9467C56.3572 64.9467 49.0938 65.9142 49.2956 64.9467C49.4973 63.9791 53.129 47.9172 47.4797 46.5626Z" fill="#575A89"/>
<path d="M72.1955 68.3332L74.4203 65.0626L75.8272 70.4619L72.1955 72.0101V68.3332Z" fill="#575A89"/>
<path d="M26.491 21.6958C29.4996 21.6958 31.9386 19.3565 31.9386 16.4708C31.9386 13.5852 29.4996 11.2459 26.491 11.2459C23.4824 11.2459 21.0435 13.5852 21.0435 16.4708C21.0435 19.3565 23.4824 21.6958 26.491 21.6958Z" fill="#F2F2F2"/>
<path d="M32.9474 55.3676H20.0347V67.7527H32.9474V55.3676Z" fill="#F2F2F2"/>
<path d="M79.0554 0L82.3238 5.42948L85.5919 10.859H79.0554H72.519L75.7871 5.42948L79.0554 0Z" fill="#F2F2F2"/>
<path d="M119.889 42.1218C119.811 44.4383 119.223 46.2949 118.125 47.6919C117.026 49.089 115.722 49.7876 114.21 49.7877C112.979 49.7877 111.9 49.1041 110.973 47.7367C110.046 46.3694 109.583 44.2662 109.583 41.427C109.583 40.7993 109.599 40.2016 109.63 39.6338C109.661 39.066 109.7 38.5281 109.747 38.0199L110.564 30.6454H105.166C104.231 39.97 103.464 45.5177 102.864 47.2885C102.264 49.0592 101.248 49.9446 99.8143 49.9447C99.1673 49.9294 98.55 49.6814 98.0849 49.2498C97.8152 49.0206 97.6019 48.7368 97.4605 48.419C97.319 48.1011 97.2529 47.7571 97.2669 47.4117C97.2669 46.7246 97.8317 45.7645 98.9612 44.5314C100.091 43.2986 100.718 42.1741 100.843 41.158L102.245 30.6454H99.9779C99.3388 30.649 98.7099 30.7989 98.1433 31.0824C97.6219 31.3122 97.1681 31.6626 96.8229 32.1023L95.818 33.5369H95C95.7632 31.2656 96.7019 29.5583 97.8161 28.4151C98.9298 27.2719 100.211 26.7003 101.66 26.7003H119.515V30.6454H113.486C113.299 32.4386 113.155 34.2317 113.053 36.0249C112.952 37.8181 112.901 39.6188 112.902 41.4269C112.902 42.6524 113.198 43.6461 113.79 44.4081C114.382 45.1703 115.122 45.5513 116.01 45.5513C116.555 45.5513 117.127 45.3383 117.727 44.9124C118.012 44.7208 118.251 44.4723 118.426 44.1841C118.602 43.8959 118.71 43.5747 118.744 43.2426C118.791 42.914 118.826 42.6562 118.849 42.4692C118.873 42.2826 118.884 42.1668 118.884 42.1218L119.889 42.1218Z" fill="#5059C9"/>
<path opacity="0.1" d="M119.889 42.1218C119.811 44.4383 119.223 46.2949 118.125 47.6919C117.026 49.089 115.722 49.7876 114.21 49.7877C112.979 49.7877 111.9 49.1041 110.973 47.7367C110.046 46.3694 109.583 44.2662 109.583 41.427C109.583 40.7993 109.599 40.2016 109.63 39.6338C109.661 39.066 109.7 38.5281 109.747 38.0199L110.564 30.6454H105.166C104.231 39.97 103.464 45.5177 102.864 47.2885C102.264 49.0592 101.248 49.9446 99.8143 49.9447C99.1673 49.9294 98.55 49.6814 98.0849 49.2498C97.8152 49.0206 97.6019 48.7368 97.4605 48.419C97.319 48.1011 97.2529 47.7571 97.2669 47.4117C97.2669 46.7246 97.8317 45.7645 98.9612 44.5314C100.091 43.2986 100.718 42.1741 100.843 41.158L102.245 30.6454H99.9779C99.3388 30.649 98.7099 30.7989 98.1433 31.0824C97.6219 31.3122 97.1681 31.6626 96.8229 32.1023L95.818 33.5369H95C95.7632 31.2656 96.7019 29.5583 97.8161 28.4151C98.9298 27.2719 100.211 26.7003 101.66 26.7003H119.515V30.6454H113.486C113.299 32.4386 113.155 34.2317 113.053 36.0249C112.952 37.8181 112.901 39.6188 112.902 41.4269C112.902 42.6524 113.198 43.6461 113.79 44.4081C114.382 45.1703 115.122 45.5513 116.01 45.5513C116.555 45.5513 117.127 45.3383 117.727 44.9124C118.012 44.7208 118.251 44.4723 118.426 44.1841C118.602 43.8959 118.71 43.5747 118.744 43.2426C118.791 42.914 118.826 42.6562 118.849 42.4692C118.873 42.2826 118.884 42.1668 118.884 42.1218L119.889 42.1218Z" fill="black"/>
<path d="M119.889 41.4215C119.811 43.7379 119.223 45.5946 118.125 46.9916C117.026 48.3887 115.722 49.0873 114.21 49.0874C112.979 49.0874 111.9 48.4037 110.973 47.0364C110.046 45.6691 109.583 43.5658 109.583 40.7266C109.583 40.099 109.599 39.5013 109.63 38.9334C109.661 38.3657 109.7 37.8277 109.747 37.3196L110.564 29.945H105.166C104.231 39.2697 103.464 44.8174 102.864 46.5881C102.264 48.3589 101.248 49.2443 99.8143 49.2443C99.1673 49.2291 98.55 48.981 98.0849 48.5495C97.8152 48.3203 97.6019 48.0365 97.4605 47.7186C97.319 47.4008 97.2529 47.0567 97.2669 46.7114C97.2669 46.0243 97.8317 45.0642 98.9612 43.8311C100.091 42.5983 100.718 41.4738 100.843 40.4577L102.245 29.945H99.9779C99.3388 29.9487 98.7099 30.0985 98.1433 30.3821C97.6219 30.6118 97.1681 30.9623 96.8229 31.402L95.818 32.8366H95C95.7632 30.5653 96.7019 28.858 97.8161 27.7147C98.9298 26.5716 100.211 26 101.66 26H119.515V29.945H113.486C113.299 31.7382 113.155 33.5314 113.053 35.3246C112.952 37.1178 112.901 38.9185 112.902 40.7266C112.902 41.9521 113.198 42.9458 113.79 43.7078C114.382 44.47 115.122 44.851 116.01 44.851C116.555 44.851 117.127 44.638 117.727 44.2121C118.012 44.0205 118.251 43.772 118.426 43.4838C118.602 43.1956 118.71 42.8744 118.744 42.5423C118.791 42.2137 118.826 41.9559 118.849 41.7689C118.873 41.5823 118.884 41.4664 118.884 41.4215H119.889Z" fill="#5059C9"/>
</g>
<defs>
<filter id="filter0_d" x="0" y="0" width="140" height="140" filterUnits="userSpaceOnUse" color-interpolation-filters="sRGB">
<feFlood flood-opacity="0" result="BackgroundImageFix"/>
<feColorMatrix in="SourceAlpha" type="matrix" values="0 0 0 0 0 0 0 0 0 0 0 0 0 0 0 0 0 0 127 0" result="hardAlpha"/>
<feOffset dy="4"/>
<feGaussianBlur stdDeviation="2"/>
<feComposite in2="hardAlpha" operator="out"/>
<feColorMatrix type="matrix" values="0 0 0 0 0 0 0 0 0 0 0 0 0 0 0 0 0 0 0.25 0"/>
<feBlend mode="normal" in2="BackgroundImageFix" result="effect1_dropShadow"/>
<feBlend mode="normal" in="SourceGraphic" in2="effect1_dropShadow" result="shape"/>
</filter>
</defs>
</svg>
