<svg width="24" height="24" viewBox="0 0 24 24" fill="none" xmlns="http://www.w3.org/2000/svg">
<path d="M12.9549 22.0448C11.7908 20.8469 11.1407 19.2417 11.1429 17.5714C11.1429 16.1245 11.6212 14.7882 12.4286 13.7142H4.28572C3.60374 13.7142 2.94968 13.9852 2.46745 14.4674C1.98521 14.9496 1.71429 15.6037 1.71429 16.2857V16.8985C1.71429 20.0854 5.32287 22.2857 10.2857 22.2857C11.2294 22.2857 12.1243 22.2017 12.9549 22.0448ZM15.4286 6.85709C15.4286 5.49312 14.8867 4.18501 13.9223 3.22054C12.9578 2.25607 11.6497 1.71423 10.2857 1.71423C8.92175 1.71423 7.61365 2.25607 6.64917 3.22054C5.6847 4.18501 5.14287 5.49312 5.14287 6.85709C5.14287 8.22106 5.6847 9.52917 6.64917 10.4936C7.61365 11.4581 8.92175 11.9999 10.2857 11.9999C11.6497 11.9999 12.9578 11.4581 13.9223 10.4936C14.8867 9.52917 15.4286 8.22106 15.4286 6.85709ZM17.5714 23.1428C19.0491 23.1428 20.4662 22.5558 21.511 21.511C22.5559 20.4661 23.1429 19.049 23.1429 17.5714C23.1429 16.0937 22.5559 14.6766 21.511 13.6318C20.4662 12.5869 19.0491 11.9999 17.5714 11.9999C16.0938 11.9999 14.6767 12.5869 13.6318 13.6318C12.587 14.6766 12 16.0937 12 17.5714C12 19.049 12.587 20.4661 13.6318 21.511C14.6767 22.5558 16.0938 23.1428 17.5714 23.1428ZM17.5714 13.7142C17.6851 13.7142 17.7941 13.7594 17.8745 13.8398C17.9549 13.9201 18 14.0291 18 14.1428V17.1428H21C21.1137 17.1428 21.2227 17.188 21.3031 17.2683C21.3834 17.3487 21.4286 17.4577 21.4286 17.5714C21.4286 17.685 21.3834 17.794 21.3031 17.8744C21.2227 17.9548 21.1137 17.9999 21 17.9999H18V20.9999C18 21.1136 17.9549 21.2226 17.8745 21.303C17.7941 21.3834 17.6851 21.4285 17.5714 21.4285C17.4578 21.4285 17.3488 21.3834 17.2684 21.303C17.188 21.2226 17.1429 21.1136 17.1429 20.9999V17.9999H14.1429C14.0292 17.9999 13.9202 17.9548 13.8398 17.8744C13.7594 17.794 13.7143 17.685 13.7143 17.5714C13.7143 17.4577 13.7594 17.3487 13.8398 17.2683C13.9202 17.188 14.0292 17.1428 14.1429 17.1428H17.1429V14.1428C17.1429 14.0291 17.188 13.9201 17.2684 13.8398C17.3488 13.7594 17.4578 13.7142 17.5714 13.7142Z" fill="#9F9F9F"/>
</svg>
