<svg width="12" height="16" viewBox="0 0 12 16" fill="none" xmlns="http://www.w3.org/2000/svg">
<path d="M4.50195 7C4.69894 7 4.89399 6.9612 5.07598 6.88582C5.25797 6.81044 5.42333 6.69995 5.56261 6.56066C5.7019 6.42137 5.81239 6.25601 5.88777 6.07403C5.96315 5.89204 6.00195 5.69698 6.00195 5.5C6.00195 5.30302 5.96315 5.10796 5.88777 4.92597C5.81239 4.74399 5.7019 4.57863 5.56261 4.43934C5.42333 4.30005 5.25797 4.18956 5.07598 4.11418C4.89399 4.0388 4.69894 4 4.50195 4C4.10413 4 3.7226 4.15804 3.44129 4.43934C3.15999 4.72064 3.00195 5.10218 3.00195 5.5C3.00195 5.89782 3.15999 6.27936 3.44129 6.56066C3.7226 6.84196 4.10413 7 4.50195 7Z" fill="#9F9F9F"/>
<path d="M12 14C12 14.5304 11.7893 15.0391 11.4142 15.4142C11.0391 15.7893 10.5304 16 10 16H2C1.46957 16 0.960859 15.7893 0.585786 15.4142C0.210714 15.0391 0 14.5304 0 14V2C0 1.46957 0.210714 0.960859 0.585786 0.585786C0.960859 0.210714 1.46957 0 2 0L7.5 0L12 4.5V14ZM2 1C1.73478 1 1.48043 1.10536 1.29289 1.29289C1.10536 1.48043 1 1.73478 1 2V12L3.224 9.776C3.30282 9.69737 3.40562 9.6473 3.51612 9.63371C3.62661 9.62012 3.73849 9.64381 3.834 9.701L6 11L8.157 7.98C8.19921 7.92098 8.25375 7.87184 8.31685 7.83602C8.37996 7.80019 8.4501 7.77853 8.52241 7.77253C8.59473 7.76654 8.66748 7.77636 8.73562 7.8013C8.80376 7.82625 8.86565 7.86573 8.917 7.917L11 10V4.5H9C8.60218 4.5 8.22064 4.34196 7.93934 4.06066C7.65804 3.77936 7.5 3.39782 7.5 3V1H2Z" fill="#9F9F9F"/>
</svg>

