<svg width="32" height="30" viewBox="0 0 32 30" fill="none" xmlns="http://www.w3.org/2000/svg">
<path d="M6.42002 29.1943C4.76623 29.1945 3.17867 28.5444 2.00002 27.3843L1.87002 27.2543C1.27782 26.6765 0.807281 25.9859 0.486121 25.2234C0.164961 24.4608 -0.000319693 23.6417 1.84782e-05 22.8143C-0.00207434 21.9185 0.173626 21.0312 0.516938 20.2039C0.86025 19.3765 1.36435 18.6255 2.00002 17.9943L17.5 2.66431C19.0749 1.02458 21.2308 0.0690645 23.5034 0.00359902C25.776 -0.0618664 27.9834 0.767956 29.65 2.31431C30.4017 3.06411 30.9966 3.95602 31.4001 4.93807C31.8035 5.92011 32.0075 6.97264 32 8.03431C31.9911 9.22002 31.748 10.3923 31.2847 11.4837C30.8213 12.5752 30.1468 13.5643 29.3 14.3943L15.37 28.1943C15.2834 28.3108 15.1725 28.407 15.045 28.4763C14.9175 28.5456 14.7764 28.5864 14.6315 28.5957C14.4867 28.605 14.3416 28.5826 14.2062 28.5302C14.0709 28.4778 13.9486 28.3965 13.8478 28.292C13.747 28.1876 13.6702 28.0624 13.6227 27.9253C13.5751 27.7882 13.558 27.6423 13.5725 27.4979C13.587 27.3535 13.6327 27.214 13.7065 27.089C13.7804 26.9641 13.8805 26.8567 14 26.7743L27.89 12.9743C28.5497 12.3304 29.0756 11.5625 29.4377 10.7148C29.7998 9.86702 29.9909 8.9561 30 8.03431C30.0073 7.23656 29.8553 6.44537 29.5531 5.70704C29.2509 4.9687 28.8045 4.29805 28.24 3.73431C26.9478 2.55718 25.2452 1.93433 23.4985 1.99979C21.7517 2.06524 20.1005 2.81377 18.9 4.08431L3.45002 19.4143C2.99473 19.8564 2.63203 20.3847 2.38308 20.9685C2.13413 21.5522 2.00391 22.1797 2.00002 22.8143C1.99788 23.3715 2.10639 23.9237 2.31924 24.4386C2.5321 24.9536 2.84508 25.4212 3.24002 25.8143L3.37002 25.9443C4.26477 26.7682 5.44727 27.2079 6.66297 27.1686C7.87866 27.1293 9.03032 26.6143 9.87002 25.7343L23.22 12.5343C23.4725 12.279 23.6715 11.976 23.8054 11.6429C23.9394 11.3098 24.0055 10.9533 24 10.5943C24.0022 10.2825 23.9423 9.97339 23.8239 9.68496C23.7054 9.39653 23.5307 9.13456 23.31 8.91431C22.805 8.45122 22.1381 8.20529 21.4534 8.22962C20.7686 8.25394 20.1209 8.54656 19.65 9.04431L10.45 18.1643C10.2617 18.3513 10.0068 18.4558 9.74148 18.4549C9.47612 18.4539 9.222 18.3476 9.03502 18.1593C8.84804 17.971 8.74352 17.7161 8.74446 17.4508C8.7454 17.1854 8.85171 16.9313 9.04002 16.7443L18.28 7.59431C19.127 6.72664 20.2811 6.22671 21.4934 6.20239C22.7057 6.17806 23.8789 6.6313 24.76 7.46431C25.1652 7.87681 25.4837 8.36629 25.6967 8.90386C25.9097 9.44144 26.0128 10.0162 26 10.5943C25.9989 11.2168 25.8737 11.8329 25.6316 12.4064C25.3895 12.9799 25.0354 13.4993 24.59 13.9343L11.28 27.1743C9.98991 28.4624 8.24306 29.1884 6.42002 29.1943Z" fill="#9F9F9F"/>
</svg>
