<svg width="400" height="300" viewBox="0 0 400 300" fill="none" xmlns="http://www.w3.org/2000/svg">
<g clip-path="url(#clip0)">
<path d="M388.805 170.784L316.376 241.159L300.529 256.555L256.184 256.246L218.339 255.984L215.195 255.962L207.515 245.669L176.98 204.749L161.652 184.206L157.044 178.031L153.71 173.563L146.28 163.606L134.251 147.487L146.434 135.65L158.07 124.344L166.433 116.218L271.737 13.9028L388.805 170.784Z" fill="#F2F2F2"/>
<path d="M172.727 40.665H33.916V155.171H172.727V40.665Z" fill="#3F3D56"/>
<path d="M333.217 277.258H202.448V278.056H333.217V277.258Z" fill="#3F3D56"/>
<path d="M396.477 256.113H291.808C291.808 256.113 289.686 220.605 302.239 220.201C314.793 219.798 313.378 235.938 329.114 213.745C344.85 191.553 363.945 192.764 366.42 205.877C368.895 218.991 361.646 229.482 374.907 226.254C388.167 223.026 407.262 231.499 396.477 256.113Z" fill="#6C63FF"/>
<path d="M342.375 256.121L342.022 256.105C342.846 232.726 347.137 217.706 350.591 209.222C354.342 200.01 357.956 196.281 357.992 196.244L358.227 196.546C358.192 196.582 354.62 200.274 350.899 209.424C347.463 217.872 343.196 232.831 342.375 256.121Z" fill="#F2F2F2"/>
<path d="M380.258 256.169L379.918 256.056C384.006 240.047 393.632 229.939 393.729 229.838L393.966 230.137C393.87 230.237 384.317 240.273 380.258 256.169Z" fill="#F2F2F2"/>
<path d="M308.294 256.14L307.943 256.085C309.33 244.672 306.825 235.817 304.479 230.399C301.939 224.532 299.041 221.327 299.012 221.296L299.257 221.004C299.286 221.037 302.229 224.29 304.796 230.22C307.164 235.689 309.693 244.626 308.294 256.14Z" fill="#F2F2F2"/>
<path d="M400 256.113H15.0352V256.911H400V256.113Z" fill="#3F3D56"/>
<path d="M286.514 15.7251H253.404V62.6652H286.514V15.7251Z" fill="#2F2E41"/>
<path d="M226.063 234.683L221.548 253.574L229.073 259.871L231.08 258.154L234.591 238.691L226.063 234.683Z" fill="#FFB8B8"/>
<path d="M282.751 232.966L281.247 255.864H290.778V234.683L282.751 232.966Z" fill="#FFB8B8"/>
<path d="M252.651 88.1387V101.877L271.213 105.312L287.266 97.8701L284.257 89.2833L252.651 88.1387Z" fill="#FFB8B8"/>
<path d="M267.702 99.5874L251.648 96.1527L247.635 133.361L237.602 179.729C237.602 179.729 222.552 219.227 224.558 228.386L225.562 231.249L224.558 236.401L234.592 240.98L238.605 233.538C238.605 233.538 241.615 238.69 246.632 227.814C251.648 216.938 272.718 149.39 272.718 149.39L276.23 160.838C275.322 164.37 275.15 168.094 275.728 171.715C276.732 177.439 277.735 195.185 277.735 195.185C277.735 195.185 272.217 226.097 279.742 228.386L281.247 235.256L291.782 236.401L293.788 229.531C293.788 229.531 303.822 225.524 301.313 205.489C298.805 185.453 297.802 119.623 297.802 119.623L287.919 91.8169L267.702 99.5874Z" fill="#2F2E41"/>
<path d="M224.558 252.429C224.558 252.429 222.05 250.139 221.046 250.712C220.043 251.284 209.508 266.74 209.508 266.74C209.508 266.74 198.471 276.472 206.498 277.616C214.525 278.761 236.598 266.168 236.598 263.305C236.598 260.443 231.96 253.275 231.96 253.275C231.96 253.275 228.571 256.436 224.558 252.429Z" fill="#2F2E41"/>
<path d="M280.243 250.712C280.243 250.712 289.273 250.072 290.778 251.823C292.283 253.574 291.782 262.161 291.782 262.161C291.782 262.161 292.785 277.616 284.758 277.616C276.731 277.616 278.738 267.313 278.738 267.313L280.243 250.712Z" fill="#2F2E41"/>
<path d="M271.213 37.7639C278.14 37.7639 283.755 31.3566 283.755 23.4529C283.755 15.5491 278.14 9.14185 271.213 9.14185C264.286 9.14185 258.671 15.5491 258.671 23.4529C258.671 31.3566 264.286 37.7639 271.213 37.7639Z" fill="#FFB8B8"/>
<path d="M262.936 32.3257C262.936 32.3257 269.959 42.0572 255.912 49.4989C241.866 56.9406 265.946 87.8524 265.946 87.8524C265.946 87.8524 294.039 75.8312 291.531 52.3611C291.531 52.3611 274.474 48.9265 278.487 32.8981L262.936 32.3257Z" fill="#FFB8B8"/>
<path d="M255.41 48.9266C255.41 48.9266 243.872 47.2092 243.37 58.0856C242.869 68.962 243.37 95.2942 243.37 95.2942C243.37 95.2942 238.354 118.192 240.862 138.227C240.862 138.227 237.852 161.697 245.879 160.552C253.905 159.408 247.885 136.51 247.885 136.51L251.397 99.3013L249.892 71.8242L256.414 55.2234L255.41 48.9266Z" fill="#FFB8B8"/>
<path d="M288.617 51.4554C288.617 51.4554 299.557 51.2162 300.059 60.3753C300.56 69.5343 296.547 97.5839 296.547 97.5839L290.527 101.019L285.009 81.5556L288.617 51.4554Z" fill="#FFB8B8"/>
<path d="M291.781 98.4426L290.778 101.305L293.788 109.891C293.788 109.891 281.748 120.768 282.751 123.058C283.755 125.347 289.273 120.195 289.273 120.195L297.3 124.775C297.3 124.775 303.821 116.761 300.811 109.319C297.801 101.877 296.639 96.9348 296.639 96.9348C296.639 96.9348 292.283 96.7253 291.781 98.4426Z" fill="#FFB8B8"/>
<path d="M253.153 46.9229L251.648 65.8134C251.648 65.8134 244.625 73.8276 252.651 84.7039L251.648 93.2905C251.648 93.2905 270.21 92.1456 273.721 93.2905C277.233 94.4354 288.078 92.3688 288.078 92.3688L288.27 85.8488C288.27 85.8488 293.286 77.8346 291.781 65.8134C290.276 53.7921 291.781 49.7851 291.781 49.7851L288.27 49.2126C288.27 49.2126 286.012 66.672 270.46 68.3894C270.46 68.3894 251.146 70.3929 256.665 46.9229H253.153Z" fill="#6C63FF"/>
<path d="M272.467 0.269109C272.467 0.269109 259.424 -0.653551 256.414 8.60165C253.404 17.8569 248.136 22.7158 248.136 22.7158C248.136 22.7158 239.839 29.2973 243.988 41.0463C243.988 41.0463 231.08 50.9442 239.608 59.7366C239.608 59.7366 239.106 68.5291 244.123 74.545C244.123 74.545 248.136 76.8587 246.631 78.247C245.126 79.6353 256.665 78.7098 255.661 66.2153C254.658 53.7208 261.431 44.9195 261.431 44.9195C261.431 44.9195 254.909 28.7198 257.919 23.1667C259.746 19.7952 260.531 17.2809 262.048 15.8258C262.893 15.0348 263.677 14.1622 264.39 13.2178C265.065 12.2444 265.981 11.5261 267.02 11.1566C268.058 10.7871 269.17 10.7837 270.21 11.1468C274.725 12.5351 275.728 16.6999 275.728 16.6999C275.728 16.6999 278.989 26.6493 284.507 31.2769C290.026 35.9045 280.243 44.0028 280.243 44.0028C280.243 44.0028 281.944 53.5373 286.361 59.1822C290.778 64.827 285.088 69.7474 284.758 70.3801C284.006 71.8242 281 80.9428 293.414 80.9832C293.414 80.9832 296.297 74.0822 300.31 69.9174C304.323 65.7525 301.313 53.7208 301.313 53.7208C301.313 53.7208 307.333 49.5559 300.812 39.3752C300.812 39.3752 302.818 30.12 297.3 24.1041C297.3 24.1041 289.524 -2.97021 272.467 0.269109Z" fill="#2F2E41"/>
<path d="M257.668 25.4565C258.361 25.4565 258.922 24.4313 258.922 23.1667C258.922 21.9021 258.361 20.877 257.668 20.877C256.976 20.877 256.414 21.9021 256.414 23.1667C256.414 24.4313 256.976 25.4565 257.668 25.4565Z" fill="#FFB8B8"/>
<path d="M207.343 299.601H0.349819C0.349819 299.601 -3.84598 229.381 20.9792 228.583C45.8044 227.785 43.0072 259.703 74.126 215.816C105.245 171.929 143.007 174.322 147.902 200.256C152.797 226.189 138.462 246.936 164.685 240.553C190.909 234.169 228.671 250.926 207.343 299.601Z" fill="#6C63FF"/>
<path d="M100.352 299.617L99.6533 299.585C101.283 253.353 109.768 223.648 116.6 206.87C124.017 188.653 131.165 181.278 131.236 181.206L131.701 181.802C131.63 181.874 124.566 189.175 117.208 207.269C110.414 223.976 101.975 253.559 100.352 299.617Z" fill="#F2F2F2"/>
<path d="M175.268 299.713L174.597 299.49C182.68 267.83 201.716 247.84 201.908 247.642L202.378 248.233C202.188 248.429 183.294 268.277 175.268 299.713Z" fill="#F2F2F2"/>
<path d="M32.9519 299.656L32.2591 299.546C35.0017 276.976 30.0477 259.465 25.4087 248.749C20.3857 237.147 14.6545 230.81 14.5972 230.747L15.081 230.171C15.1392 230.235 20.959 236.669 26.0356 248.396C30.718 259.212 35.7189 276.885 32.9519 299.656Z" fill="#F2F2F2"/>
<path d="M292.657 299.202H0V300H292.657V299.202Z" fill="#3F3D56"/>
<path d="M197.552 155.57H33.5664V7.15112H197.552V155.57ZM34.2657 154.773H196.853V7.94908H34.2657V154.773Z" fill="#3F3D56"/>
<path d="M47.9021 74.9771C51.1849 74.9771 53.8461 71.9404 53.8461 68.1945C53.8461 64.4485 51.1849 61.4119 47.9021 61.4119C44.6192 61.4119 41.958 64.4485 41.958 68.1945C41.958 71.9404 44.6192 74.9771 47.9021 74.9771Z" fill="#6C63FF"/>
<path d="M64.6853 74.9771C67.9681 74.9771 70.6293 71.9404 70.6293 68.1945C70.6293 64.4485 67.9681 61.4119 64.6853 61.4119C61.4025 61.4119 58.7412 64.4485 58.7412 68.1945C58.7412 71.9404 61.4025 74.9771 64.6853 74.9771Z" fill="#D0CDE1"/>
<path opacity="0.5" d="M81.4685 74.9771C84.7513 74.9771 87.4125 71.9404 87.4125 68.1945C87.4125 64.4485 84.7513 61.4119 81.4685 61.4119C78.1857 61.4119 75.5244 64.4485 75.5244 68.1945C75.5244 71.9404 78.1857 74.9771 81.4685 74.9771Z" fill="#6C63FF"/>
<path d="M98.2517 74.9771C101.534 74.9771 104.196 71.9404 104.196 68.1945C104.196 64.4485 101.534 61.4119 98.2517 61.4119C94.9689 61.4119 92.3076 64.4485 92.3076 68.1945C92.3076 71.9404 94.9689 74.9771 98.2517 74.9771Z" fill="#F2F2F2"/>
<path d="M164.336 65.0027H115.385V71.3863H164.336V65.0027Z" fill="#F2F2F2"/>
<path d="M100.699 131.632C109.582 131.632 116.783 123.415 116.783 113.279C116.783 103.143 109.582 94.9258 100.699 94.9258C91.8163 94.9258 84.6152 103.143 84.6152 113.279C84.6152 123.415 91.8163 131.632 100.699 131.632Z" fill="#F2F2F2"/>
<path d="M100.766 118.804L92.7173 109.62C92.455 109.32 92.3076 108.914 92.3076 108.491C92.3076 108.068 92.455 107.662 92.7173 107.363C92.9796 107.063 93.3354 106.895 93.7063 106.895C94.0773 106.895 94.433 107.063 94.6953 107.363L100.632 114.137L119.578 89.4851C119.699 89.3275 119.846 89.1987 120.011 89.106C120.176 89.0133 120.355 88.9585 120.538 88.9448C120.721 88.9311 120.905 88.9587 121.079 89.0261C121.253 89.0934 121.413 89.1992 121.552 89.3374C121.69 89.4756 121.802 89.6434 121.884 89.8314C121.965 90.0193 122.013 90.2237 122.025 90.4328C122.037 90.642 122.013 90.8517 121.954 91.0502C121.895 91.2486 121.802 91.4319 121.681 91.5894L100.766 118.804Z" fill="#6C63FF"/>
</g>
<defs>
<clipPath id="clip0">
<rect width="400" height="300" fill="white"/>
</clipPath>
</defs>
</svg>
