<svg width="25" height="26" viewBox="0 0 25 26" fill="none" xmlns="http://www.w3.org/2000/svg">
<g clip-path="url(#clip0)">
<path d="M5.3948 0C4.49444 0 3.63096 0.357665 2.99431 0.994313C2.35767 1.63096 2 2.49444 2 3.3948V21.6745C2 22.5748 2.35767 23.4383 2.99431 24.075C3.63096 24.7116 4.49444 25.0693 5.3948 25.0693H15.3891L13.136 22.8162C12.9177 22.5979 12.7446 22.3388 12.6265 22.0537C12.5084 21.7685 12.4476 21.4629 12.4476 21.1543C12.4476 20.8457 12.5084 20.54 12.6265 20.2549C12.7446 19.9697 12.9177 19.7106 13.136 19.4924C13.3542 19.2742 13.6133 19.101 13.8985 18.9829C14.1836 18.8648 14.4892 18.804 14.7979 18.804C15.1065 18.804 15.4121 18.8648 15.6973 18.9829C15.9824 19.101 16.2415 19.2742 16.4598 19.4924L17.9294 20.9621L22.5349 16.3567C22.6456 16.2459 22.7647 16.1477 22.8911 16.0642V3.3948C22.8911 2.49444 22.5334 1.63096 21.8968 0.994313C21.2601 0.357665 20.3966 0 19.4963 0H5.3948ZM8.7896 7.05073C8.7896 7.39702 8.65203 7.72913 8.40717 7.974C8.1623 8.21886 7.83019 8.35643 7.4839 8.35643C7.13761 8.35643 6.80551 8.21886 6.56064 7.974C6.31578 7.72913 6.17821 7.39702 6.17821 7.05073C6.17821 6.70444 6.31578 6.37234 6.56064 6.12747C6.80551 5.88261 7.13761 5.74504 7.4839 5.74504C7.83019 5.74504 8.1623 5.88261 8.40717 6.12747C8.65203 6.37234 8.7896 6.70444 8.7896 7.05073ZM7.4839 13.8403C7.13761 13.8403 6.80551 13.7028 6.56064 13.4579C6.31578 13.213 6.17821 12.8809 6.17821 12.5346C6.17821 12.1883 6.31578 11.8562 6.56064 11.6114C6.80551 11.3665 7.13761 11.2289 7.4839 11.2289C7.83019 11.2289 8.1623 11.3665 8.40717 11.6114C8.65203 11.8562 8.7896 12.1883 8.7896 12.5346C8.7896 12.8809 8.65203 13.213 8.40717 13.4579C8.1623 13.7028 7.83019 13.8403 7.4839 13.8403ZM7.4839 19.3242C7.13761 19.3242 6.80551 19.1867 6.56064 18.9418C6.31578 18.6969 6.17821 18.3648 6.17821 18.0185C6.17821 17.6723 6.31578 17.3401 6.56064 17.0953C6.80551 16.8504 7.13761 16.7129 7.4839 16.7129C7.83019 16.7129 8.1623 16.8504 8.40717 17.0953C8.65203 17.3401 8.7896 17.6723 8.7896 18.0185C8.7896 18.3648 8.65203 18.6969 8.40717 18.9418C8.1623 19.1867 7.83019 19.3242 7.4839 19.3242ZM11.1398 6.26732H17.9294C18.1372 6.26732 18.3365 6.34986 18.4834 6.49678C18.6303 6.64369 18.7129 6.84296 18.7129 7.05073C18.7129 7.25851 18.6303 7.45777 18.4834 7.60469C18.3365 7.75161 18.1372 7.83415 17.9294 7.83415H11.1398C10.9321 7.83415 10.7328 7.75161 10.5859 7.60469C10.439 7.45777 10.3564 7.25851 10.3564 7.05073C10.3564 6.84296 10.439 6.64369 10.5859 6.49678C10.7328 6.34986 10.9321 6.26732 11.1398 6.26732ZM10.3564 12.5346C10.3564 12.3269 10.439 12.1276 10.5859 11.9807C10.7328 11.8338 10.9321 11.7512 11.1398 11.7512H17.9294C18.1372 11.7512 18.3365 11.8338 18.4834 11.9807C18.6303 12.1276 18.7129 12.3269 18.7129 12.5346C18.7129 12.7424 18.6303 12.9417 18.4834 13.0886C18.3365 13.2355 18.1372 13.3181 17.9294 13.3181H11.1398C10.9321 13.3181 10.7328 13.2355 10.5859 13.0886C10.439 12.9417 10.3564 12.7424 10.3564 12.5346ZM11.1398 17.2351H17.9294C18.1372 17.2351 18.3365 17.3177 18.4834 17.4646C18.6303 17.6115 18.7129 17.8108 18.7129 18.0185C18.7129 18.2263 18.6303 18.4256 18.4834 18.5725C18.3365 18.7194 18.1372 18.802 17.9294 18.802H11.1398C10.9321 18.802 10.7328 18.7194 10.5859 18.5725C10.439 18.4256 10.3564 18.2263 10.3564 18.0185C10.3564 17.8108 10.439 17.6115 10.5859 17.4646C10.7328 17.3177 10.9321 17.2351 11.1398 17.2351Z" fill="white"/>
<path d="M18.4832 24.8397L24.7505 18.5724C24.8275 18.5007 24.8893 18.4142 24.9321 18.3181C24.9749 18.222 24.9979 18.1182 24.9998 18.0131C25.0016 17.9079 24.9823 17.8034 24.9429 17.7058C24.9035 17.6083 24.8448 17.5197 24.7704 17.4453C24.696 17.3709 24.6074 17.3122 24.5099 17.2728C24.4123 17.2334 24.3078 17.2141 24.2027 17.2159C24.0975 17.2178 23.9937 17.2408 23.8976 17.2836C23.8015 17.3265 23.715 17.3882 23.6433 17.4652L17.9296 23.1789L15.3517 20.6009C15.2032 20.4625 15.0067 20.3872 14.8038 20.3908C14.6008 20.3944 14.4072 20.4766 14.2636 20.6201C14.1201 20.7636 14.0379 20.9573 14.0343 21.1602C14.0307 21.3632 14.1061 21.5596 14.2444 21.7081L17.376 24.8397C17.5229 24.9864 17.722 25.0688 17.9296 25.0688C18.1372 25.0688 18.3363 24.9864 18.4832 24.8397Z" fill="white"/>
</g>
<defs>
<clipPath id="clip0">
<rect width="25" height="25.07" fill="white"/>
</clipPath>
</defs>
</svg>
