<svg width="60" height="60" viewBox="0 0 60 60" fill="none" xmlns="http://www.w3.org/2000/svg">
<rect width="60" height="60" rx="10" fill="#EDEDED"/>
<path d="M41.5466 23.1444C43.1539 23.1444 44.4568 21.8415 44.4568 20.2343C44.4568 18.627 43.1539 17.3241 41.5466 17.3241C39.9394 17.3241 38.6365 18.627 38.6365 20.2343C38.6365 21.8415 39.9394 23.1444 41.5466 23.1444Z" fill="white"/>
<path d="M45.7264 26.8165C47.3337 26.8165 48.6366 25.5136 48.6366 23.9064C48.6366 22.2991 47.3337 20.9962 45.7264 20.9962C44.1192 20.9962 42.8163 22.2991 42.8163 23.9064C42.8163 25.5136 44.1192 26.8165 45.7264 26.8165Z" fill="white"/>
<path d="M41.9257 30.8673C43.5329 30.8673 44.8358 29.5644 44.8358 27.9572C44.8358 26.3499 43.5329 25.047 41.9257 25.047C40.3184 25.047 39.0155 26.3499 39.0155 27.9572C39.0155 29.5644 40.3184 30.8673 41.9257 30.8673Z" fill="white"/>
<path d="M37.625 27.0664C39.2322 27.0664 40.5352 25.7635 40.5352 24.1563C40.5352 22.549 39.2322 21.2461 37.625 21.2461C36.0178 21.2461 34.7148 22.549 34.7148 24.1563C34.7148 25.7635 36.0178 27.0664 37.625 27.0664Z" fill="white"/>
<path d="M18.4022 31.8671C22.5961 31.8671 25.996 28.4673 25.996 24.2734C25.996 20.0795 22.5961 16.6796 18.4022 16.6796C14.2083 16.6796 10.8085 20.0795 10.8085 24.2734C10.8085 28.4673 14.2083 31.8671 18.4022 31.8671Z" fill="#A8A8A8"/>
<path d="M23.0272 22.7736H19.8007V19.547C19.8007 19.4298 19.7069 19.3361 19.5858 19.3361H17.2499C17.1327 19.3361 17.0389 19.4298 17.0389 19.547V22.7736H13.8124C13.6952 22.7736 13.6014 22.8673 13.6014 22.9845V25.3243C13.6014 25.4415 13.6952 25.5353 13.8124 25.5353H17.0389V28.7618C17.0389 28.879 17.1366 28.9767 17.2499 28.9767H19.5858C19.703 28.9767 19.8007 28.879 19.8007 28.7618V25.5353H23.0272C23.1444 25.5353 23.2421 25.4376 23.2421 25.3243V22.9845C23.2421 22.8712 23.1444 22.7736 23.0272 22.7736Z" fill="white"/>
<path fill-rule="evenodd" clip-rule="evenodd" d="M25.0314 24.1562C25.0314 27.8085 22.0705 30.7695 18.4221 30.7695C14.7697 30.7695 11.8127 27.8085 11.8127 24.1562C11.8127 20.5038 14.7697 17.5429 18.4221 17.5429C22.0705 17.5429 25.0314 20.5038 25.0314 24.1562ZM18.4181 17.5429C14.7658 17.5429 11.8088 20.5038 11.8088 24.1562C11.8088 27.8085 14.7658 30.7695 18.4181 30.7695C22.0705 30.7695 25.0275 27.8085 25.0275 24.1562C25.0314 20.5038 22.0705 17.5429 18.4181 17.5429ZM41.5822 18.164C41.3273 18.164 41.0748 18.2142 40.8393 18.3118C40.6037 18.4093 40.3897 18.5524 40.2094 18.7326C40.0292 18.9129 39.8862 19.1269 39.7886 19.3625C39.691 19.598 39.6408 19.8505 39.6408 20.1054C39.6408 20.3604 39.691 20.6128 39.7886 20.8484C39.8862 21.0839 40.0292 21.2979 40.2094 21.4782C40.3897 21.6585 40.6037 21.8015 40.8393 21.899C41.0748 21.9966 41.3273 22.0468 41.5822 22.0468C42.0971 22.0468 42.5909 21.8423 42.955 21.4782C43.3191 21.1141 43.5236 20.6203 43.5236 20.1054C43.5236 19.5905 43.3191 19.0967 42.955 18.7326C42.5909 18.3685 42.0971 18.164 41.5822 18.164ZM35.59 24.1562C35.59 24.4111 35.6402 24.6636 35.7378 24.8991C35.8354 25.1347 35.9784 25.3487 36.1586 25.529C36.3389 25.7092 36.5529 25.8523 36.7885 25.9498C37.024 26.0474 37.2765 26.0976 37.5314 26.0976C37.7864 26.0976 38.0388 26.0474 38.2744 25.9498C38.5099 25.8523 38.7239 25.7092 38.9042 25.529C39.0845 25.3487 39.2275 25.1347 39.3251 24.8991C39.4226 24.6636 39.4728 24.4111 39.4728 24.1562C39.4728 23.6413 39.2683 23.1475 38.9042 22.7834C38.5401 22.4193 38.0463 22.2148 37.5314 22.2148C37.0165 22.2148 36.5227 22.4193 36.1586 22.7834C35.7946 23.1475 35.59 23.6413 35.59 24.1562ZM41.5822 30.1484C41.8372 30.1484 42.0896 30.0982 42.3252 30.0006C42.5607 29.903 42.7747 29.76 42.955 29.5798C43.1353 29.3995 43.2783 29.1855 43.3758 28.9499C43.4734 28.7144 43.5236 28.4619 43.5236 28.207C43.5236 27.952 43.4734 27.6996 43.3758 27.464C43.2783 27.2285 43.1353 27.0145 42.955 26.8342C42.7747 26.6539 42.5607 26.5109 42.3252 26.4133C42.0896 26.3158 41.8372 26.2656 41.5822 26.2656C41.0673 26.2656 40.5735 26.4701 40.2094 26.8342C39.8453 27.1983 39.6408 27.6921 39.6408 28.207C39.6408 28.7219 39.8453 29.2157 40.2094 29.5798C40.5735 29.9438 41.0673 30.1484 41.5822 30.1484ZM47.5744 24.1562C47.5744 23.6413 47.3699 23.1475 47.0058 22.7834C46.6417 22.4193 46.1479 22.2148 45.633 22.2148C45.1181 22.2148 44.6243 22.4193 44.2602 22.7834C43.8961 23.1475 43.6916 23.6413 43.6916 24.1562C43.6916 25.2304 44.5588 26.0976 45.633 26.0976C46.1479 26.0976 46.6417 25.8931 47.0058 25.529C47.3699 25.1649 47.5744 24.6711 47.5744 24.1562ZM18.4181 17.5429C14.7658 17.5429 11.8088 20.5038 11.8088 24.1562C11.8088 27.8085 14.7658 30.7695 18.4181 30.7695C22.0705 30.7695 25.0275 27.8085 25.0275 24.1562C25.0314 20.5038 22.0705 17.5429 18.4181 17.5429ZM54.4806 38.5429L53.0549 23.0976C52.5158 17.2343 47.59 12.6406 41.5861 12.6406H18.4221C12.4181 12.6406 7.48846 17.2343 6.9494 23.0976L5.51971 38.5429C5.18768 42.5273 5.59783 45.9023 8.74627 47.0585C11.0822 47.914 13.4885 47.0585 16.9416 43.496L23.5549 36.2851H36.4377L43.051 43.496C46.5041 47.0585 48.9142 47.914 51.2463 47.0585C54.3986 45.8984 54.8127 42.5273 54.4806 38.5429Z" fill="#5059C9"/>
</svg>
