<svg width="433" height="74" viewBox="0 0 433 74" fill="none" xmlns="http://www.w3.org/2000/svg">
<rect x="1" y="1" width="431" height="72" fill="white" stroke="#5059C9" stroke-width="2" stroke-dasharray="3 3"/>
<path d="M97.9119 40.084H91.6119L90.3699 43H87.9579L93.6279 30.4H95.9319L101.62 43H99.1719L97.9119 40.084ZM97.1379 38.248L94.7619 32.74L92.4039 38.248H97.1379ZM105.148 34.792C105.796 33.784 106.936 33.28 108.568 33.28V35.422C108.376 35.386 108.202 35.368 108.046 35.368C107.17 35.368 106.486 35.626 105.994 36.142C105.502 36.646 105.256 37.378 105.256 38.338V43H103.006V33.388H105.148V34.792ZM112.619 34.792C113.267 33.784 114.407 33.28 116.039 33.28V35.422C115.847 35.386 115.673 35.368 115.517 35.368C114.641 35.368 113.957 35.626 113.465 36.142C112.973 36.646 112.727 37.378 112.727 38.338V43H110.477V33.388H112.619V34.792ZM121.567 33.28C122.983 33.28 124.063 33.622 124.807 34.306C125.563 34.978 125.941 35.998 125.941 37.366V43H123.817V41.83C123.541 42.25 123.145 42.574 122.629 42.802C122.125 43.018 121.513 43.126 120.793 43.126C120.073 43.126 119.443 43.006 118.903 42.766C118.363 42.514 117.943 42.172 117.643 41.74C117.355 41.296 117.211 40.798 117.211 40.246C117.211 39.382 117.529 38.692 118.165 38.176C118.813 37.648 119.827 37.384 121.207 37.384H123.691V37.24C123.691 36.568 123.487 36.052 123.079 35.692C122.683 35.332 122.089 35.152 121.297 35.152C120.757 35.152 120.223 35.236 119.695 35.404C119.179 35.572 118.741 35.806 118.381 36.106L117.499 34.468C118.003 34.084 118.609 33.79 119.317 33.586C120.025 33.382 120.775 33.28 121.567 33.28ZM121.261 41.488C121.825 41.488 122.323 41.362 122.755 41.11C123.199 40.846 123.511 40.474 123.691 39.994V38.878H121.369C120.073 38.878 119.425 39.304 119.425 40.156C119.425 40.564 119.587 40.888 119.911 41.128C120.235 41.368 120.685 41.488 121.261 41.488ZM131.799 43.126C131.019 43.126 130.257 43.024 129.513 42.82C128.769 42.616 128.175 42.358 127.731 42.046L128.595 40.336C129.027 40.624 129.543 40.858 130.143 41.038C130.755 41.206 131.355 41.29 131.943 41.29C133.287 41.29 133.959 40.936 133.959 40.228C133.959 39.892 133.785 39.658 133.437 39.526C133.101 39.394 132.555 39.268 131.799 39.148C131.007 39.028 130.359 38.89 129.855 38.734C129.363 38.578 128.931 38.308 128.559 37.924C128.199 37.528 128.019 36.982 128.019 36.286C128.019 35.374 128.397 34.648 129.153 34.108C129.921 33.556 130.953 33.28 132.249 33.28C132.909 33.28 133.569 33.358 134.229 33.514C134.889 33.658 135.429 33.856 135.849 34.108L134.985 35.818C134.169 35.338 133.251 35.098 132.231 35.098C131.571 35.098 131.067 35.2 130.719 35.404C130.383 35.596 130.215 35.854 130.215 36.178C130.215 36.538 130.395 36.796 130.755 36.952C131.127 37.096 131.697 37.234 132.465 37.366C133.233 37.486 133.863 37.624 134.355 37.78C134.847 37.936 135.267 38.2 135.615 38.572C135.975 38.944 136.155 39.472 136.155 40.156C136.155 41.056 135.765 41.776 134.985 42.316C134.205 42.856 133.143 43.126 131.799 43.126ZM143.87 42.478C143.606 42.694 143.282 42.856 142.898 42.964C142.526 43.072 142.13 43.126 141.71 43.126C140.654 43.126 139.838 42.85 139.262 42.298C138.686 41.746 138.398 40.942 138.398 39.886V35.26H136.814V33.46H138.398V31.264H140.648V33.46H143.222V35.26H140.648V39.832C140.648 40.3 140.762 40.66 140.99 40.912C141.218 41.152 141.548 41.272 141.98 41.272C142.484 41.272 142.904 41.14 143.24 40.876L143.87 42.478ZM154.441 38.248C154.441 38.404 154.429 38.626 154.405 38.914H146.863C146.995 39.622 147.337 40.186 147.889 40.606C148.453 41.014 149.149 41.218 149.977 41.218C151.033 41.218 151.903 40.87 152.587 40.174L153.793 41.56C153.361 42.076 152.815 42.466 152.155 42.73C151.495 42.994 150.751 43.126 149.923 43.126C148.867 43.126 147.937 42.916 147.133 42.496C146.329 42.076 145.705 41.494 145.261 40.75C144.829 39.994 144.613 39.142 144.613 38.194C144.613 37.258 144.823 36.418 145.243 35.674C145.675 34.918 146.269 34.33 147.025 33.91C147.781 33.49 148.633 33.28 149.581 33.28C150.517 33.28 151.351 33.49 152.083 33.91C152.827 34.318 153.403 34.9 153.811 35.656C154.231 36.4 154.441 37.264 154.441 38.248ZM149.581 35.08C148.861 35.08 148.249 35.296 147.745 35.728C147.253 36.148 146.953 36.712 146.845 37.42H152.299C152.203 36.724 151.909 36.16 151.417 35.728C150.925 35.296 150.313 35.08 149.581 35.08ZM165.897 43.126C164.925 43.126 164.049 42.916 163.269 42.496C162.489 42.076 161.877 41.494 161.433 40.75C161.001 39.994 160.785 39.142 160.785 38.194C160.785 37.246 161.001 36.4 161.433 35.656C161.877 34.912 162.489 34.33 163.269 33.91C164.049 33.49 164.925 33.28 165.897 33.28C166.881 33.28 167.763 33.49 168.543 33.91C169.323 34.33 169.929 34.912 170.361 35.656C170.805 36.4 171.027 37.246 171.027 38.194C171.027 39.142 170.805 39.994 170.361 40.75C169.929 41.494 169.323 42.076 168.543 42.496C167.763 42.916 166.881 43.126 165.897 43.126ZM165.897 41.2C166.725 41.2 167.409 40.924 167.949 40.372C168.489 39.82 168.759 39.094 168.759 38.194C168.759 37.294 168.489 36.568 167.949 36.016C167.409 35.464 166.725 35.188 165.897 35.188C165.069 35.188 164.385 35.464 163.845 36.016C163.317 36.568 163.053 37.294 163.053 38.194C163.053 39.094 163.317 39.82 163.845 40.372C164.385 40.924 165.069 41.2 165.897 41.2ZM181.825 33.28C183.241 33.28 184.321 33.622 185.065 34.306C185.821 34.978 186.199 35.998 186.199 37.366V43H184.075V41.83C183.799 42.25 183.403 42.574 182.887 42.802C182.383 43.018 181.771 43.126 181.051 43.126C180.331 43.126 179.701 43.006 179.161 42.766C178.621 42.514 178.201 42.172 177.901 41.74C177.613 41.296 177.469 40.798 177.469 40.246C177.469 39.382 177.787 38.692 178.423 38.176C179.071 37.648 180.085 37.384 181.465 37.384H183.949V37.24C183.949 36.568 183.745 36.052 183.337 35.692C182.941 35.332 182.347 35.152 181.555 35.152C181.015 35.152 180.481 35.236 179.953 35.404C179.437 35.572 178.999 35.806 178.639 36.106L177.757 34.468C178.261 34.084 178.867 33.79 179.575 33.586C180.283 33.382 181.033 33.28 181.825 33.28ZM181.519 41.488C182.083 41.488 182.581 41.362 183.013 41.11C183.457 40.846 183.769 40.474 183.949 39.994V38.878H181.627C180.331 38.878 179.683 39.304 179.683 40.156C179.683 40.564 179.845 40.888 180.169 41.128C180.493 41.368 180.943 41.488 181.519 41.488ZM191.228 34.792C191.876 33.784 193.016 33.28 194.648 33.28V35.422C194.456 35.386 194.282 35.368 194.126 35.368C193.25 35.368 192.566 35.626 192.074 36.142C191.582 36.646 191.336 37.378 191.336 38.338V43H189.086V33.388H191.228V34.792ZM205.865 33.388V46.492H203.615V41.83C202.859 42.694 201.833 43.126 200.537 43.126C199.601 43.126 198.761 42.922 198.017 42.514C197.285 42.106 196.709 41.53 196.289 40.786C195.881 40.042 195.677 39.178 195.677 38.194C195.677 37.222 195.887 36.364 196.307 35.62C196.727 34.876 197.303 34.3 198.035 33.892C198.767 33.484 199.601 33.28 200.537 33.28C201.197 33.28 201.797 33.394 202.337 33.622C202.889 33.85 203.351 34.192 203.723 34.648V33.388H205.865ZM200.789 41.2C201.617 41.2 202.301 40.924 202.841 40.372C203.381 39.82 203.651 39.094 203.651 38.194C203.651 37.294 203.381 36.568 202.841 36.016C202.301 35.464 201.617 35.188 200.789 35.188C199.961 35.188 199.277 35.464 198.737 36.016C198.209 36.568 197.945 37.294 197.945 38.194C197.945 39.094 198.209 39.82 198.737 40.372C199.277 40.924 199.961 41.2 200.789 41.2ZM218.115 33.388V43H215.973V41.776C215.613 42.208 215.163 42.544 214.623 42.784C214.083 43.012 213.501 43.126 212.877 43.126C211.593 43.126 210.579 42.772 209.835 42.064C209.103 41.344 208.737 40.282 208.737 38.878V33.388H210.987V38.572C210.987 39.436 211.179 40.084 211.563 40.516C211.959 40.936 212.517 41.146 213.237 41.146C214.041 41.146 214.677 40.9 215.145 40.408C215.625 39.904 215.865 39.184 215.865 38.248V33.388H218.115ZM221.061 33.388H223.311V43H221.061V33.388ZM222.195 31.804C221.787 31.804 221.445 31.678 221.169 31.426C220.893 31.162 220.755 30.838 220.755 30.454C220.755 30.07 220.893 29.752 221.169 29.5C221.445 29.236 221.787 29.104 222.195 29.104C222.603 29.104 222.945 29.23 223.221 29.482C223.497 29.722 223.635 30.028 223.635 30.4C223.635 30.796 223.497 31.132 223.221 31.408C222.957 31.672 222.615 31.804 222.195 31.804ZM235.264 33.388L231.142 43H228.82L224.698 33.388H227.038L230.026 40.516L233.104 33.388H235.264ZM240.727 43.126C239.755 43.126 238.879 42.916 238.099 42.496C237.319 42.076 236.707 41.494 236.263 40.75C235.831 39.994 235.615 39.142 235.615 38.194C235.615 37.246 235.831 36.4 236.263 35.656C236.707 34.912 237.319 34.33 238.099 33.91C238.879 33.49 239.755 33.28 240.727 33.28C241.711 33.28 242.593 33.49 243.373 33.91C244.153 34.33 244.759 34.912 245.191 35.656C245.635 36.4 245.857 37.246 245.857 38.194C245.857 39.142 245.635 39.994 245.191 40.75C244.759 41.494 244.153 42.076 243.373 42.496C242.593 42.916 241.711 43.126 240.727 43.126ZM240.727 41.2C241.555 41.2 242.239 40.924 242.779 40.372C243.319 39.82 243.589 39.094 243.589 38.194C243.589 37.294 243.319 36.568 242.779 36.016C242.239 35.464 241.555 35.188 240.727 35.188C239.899 35.188 239.215 35.464 238.675 36.016C238.147 36.568 237.883 37.294 237.883 38.194C237.883 39.094 238.147 39.82 238.675 40.372C239.215 40.924 239.899 41.2 240.727 41.2ZM262.019 38.248C262.019 38.404 262.007 38.626 261.983 38.914H254.441C254.573 39.622 254.915 40.186 255.467 40.606C256.031 41.014 256.727 41.218 257.555 41.218C258.611 41.218 259.481 40.87 260.165 40.174L261.371 41.56C260.939 42.076 260.393 42.466 259.733 42.73C259.073 42.994 258.329 43.126 257.501 43.126C256.445 43.126 255.515 42.916 254.711 42.496C253.907 42.076 253.283 41.494 252.839 40.75C252.407 39.994 252.191 39.142 252.191 38.194C252.191 37.258 252.401 36.418 252.821 35.674C253.253 34.918 253.847 34.33 254.603 33.91C255.359 33.49 256.211 33.28 257.159 33.28C258.095 33.28 258.929 33.49 259.661 33.91C260.405 34.318 260.981 34.9 261.389 35.656C261.809 36.4 262.019 37.264 262.019 38.248ZM257.159 35.08C256.439 35.08 255.827 35.296 255.323 35.728C254.831 36.148 254.531 36.712 254.423 37.42H259.877C259.781 36.724 259.487 36.16 258.995 35.728C258.503 35.296 257.891 35.08 257.159 35.08ZM270.036 43L267.57 39.67L265.086 43H262.602L266.346 38.122L262.764 33.388H265.266L267.624 36.538L269.982 33.388H272.412L268.812 38.086L272.574 43H270.036ZM278.328 43.126C277.332 43.126 276.438 42.916 275.646 42.496C274.854 42.076 274.236 41.494 273.792 40.75C273.348 39.994 273.126 39.142 273.126 38.194C273.126 37.246 273.348 36.4 273.792 35.656C274.236 34.912 274.848 34.33 275.628 33.91C276.42 33.49 277.32 33.28 278.328 33.28C279.276 33.28 280.104 33.472 280.812 33.856C281.532 34.24 282.072 34.792 282.432 35.512L280.704 36.52C280.428 36.076 280.08 35.746 279.66 35.53C279.252 35.302 278.802 35.188 278.31 35.188C277.47 35.188 276.774 35.464 276.222 36.016C275.67 36.556 275.394 37.282 275.394 38.194C275.394 39.106 275.664 39.838 276.204 40.39C276.756 40.93 277.458 41.2 278.31 41.2C278.802 41.2 279.252 41.092 279.66 40.876C280.08 40.648 280.428 40.312 280.704 39.868L282.432 40.876C282.06 41.596 281.514 42.154 280.794 42.55C280.086 42.934 279.264 43.126 278.328 43.126ZM293.273 38.248C293.273 38.404 293.261 38.626 293.237 38.914H285.695C285.827 39.622 286.169 40.186 286.721 40.606C287.285 41.014 287.981 41.218 288.809 41.218C289.865 41.218 290.735 40.87 291.419 40.174L292.625 41.56C292.193 42.076 291.647 42.466 290.987 42.73C290.327 42.994 289.583 43.126 288.755 43.126C287.699 43.126 286.769 42.916 285.965 42.496C285.161 42.076 284.537 41.494 284.093 40.75C283.661 39.994 283.445 39.142 283.445 38.194C283.445 37.258 283.655 36.418 284.075 35.674C284.507 34.918 285.101 34.33 285.857 33.91C286.613 33.49 287.465 33.28 288.413 33.28C289.349 33.28 290.183 33.49 290.915 33.91C291.659 34.318 292.235 34.9 292.643 35.656C293.063 36.4 293.273 37.264 293.273 38.248ZM288.413 35.08C287.693 35.08 287.081 35.296 286.577 35.728C286.085 36.148 285.785 36.712 285.677 37.42H291.131C291.035 36.724 290.741 36.16 290.249 35.728C289.757 35.296 289.145 35.08 288.413 35.08ZM295.434 29.644H297.684V43H295.434V29.644ZM309.284 33.28C310.7 33.28 311.78 33.622 312.524 34.306C313.28 34.978 313.658 35.998 313.658 37.366V43H311.534V41.83C311.258 42.25 310.862 42.574 310.346 42.802C309.842 43.018 309.23 43.126 308.51 43.126C307.79 43.126 307.16 43.006 306.62 42.766C306.08 42.514 305.66 42.172 305.36 41.74C305.072 41.296 304.928 40.798 304.928 40.246C304.928 39.382 305.246 38.692 305.882 38.176C306.53 37.648 307.544 37.384 308.924 37.384H311.408V37.24C311.408 36.568 311.204 36.052 310.796 35.692C310.4 35.332 309.806 35.152 309.014 35.152C308.474 35.152 307.94 35.236 307.412 35.404C306.896 35.572 306.458 35.806 306.098 36.106L305.216 34.468C305.72 34.084 306.326 33.79 307.034 33.586C307.742 33.382 308.492 33.28 309.284 33.28ZM308.978 41.488C309.542 41.488 310.04 41.362 310.472 41.11C310.916 40.846 311.228 40.474 311.408 39.994V38.878H309.086C307.79 38.878 307.142 39.304 307.142 40.156C307.142 40.564 307.304 40.888 307.628 41.128C307.952 41.368 308.402 41.488 308.978 41.488ZM326.029 33.388V46.492H323.779V41.83C323.023 42.694 321.997 43.126 320.701 43.126C319.765 43.126 318.925 42.922 318.181 42.514C317.449 42.106 316.873 41.53 316.453 40.786C316.045 40.042 315.841 39.178 315.841 38.194C315.841 37.222 316.051 36.364 316.471 35.62C316.891 34.876 317.467 34.3 318.199 33.892C318.931 33.484 319.765 33.28 320.701 33.28C321.361 33.28 321.961 33.394 322.501 33.622C323.053 33.85 323.515 34.192 323.887 34.648V33.388H326.029ZM320.953 41.2C321.781 41.2 322.465 40.924 323.005 40.372C323.545 39.82 323.815 39.094 323.815 38.194C323.815 37.294 323.545 36.568 323.005 36.016C322.465 35.464 321.781 35.188 320.953 35.188C320.125 35.188 319.441 35.464 318.901 36.016C318.373 36.568 318.109 37.294 318.109 38.194C318.109 39.094 318.373 39.82 318.901 40.372C319.441 40.924 320.125 41.2 320.953 41.2ZM338.279 33.388V43H336.137V41.776C335.777 42.208 335.327 42.544 334.787 42.784C334.247 43.012 333.665 43.126 333.041 43.126C331.757 43.126 330.743 42.772 329.999 42.064C329.267 41.344 328.901 40.282 328.901 38.878V33.388H331.151V38.572C331.151 39.436 331.343 40.084 331.727 40.516C332.123 40.936 332.681 41.146 333.401 41.146C334.205 41.146 334.841 40.9 335.309 40.408C335.789 39.904 336.029 39.184 336.029 38.248V33.388H338.279ZM341.225 33.388H343.475V43H341.225V33.388ZM342.359 31.804C341.951 31.804 341.609 31.678 341.333 31.426C341.057 31.162 340.919 30.838 340.919 30.454C340.919 30.07 341.057 29.752 341.333 29.5C341.609 29.236 341.951 29.104 342.359 29.104C342.767 29.104 343.109 29.23 343.385 29.482C343.661 29.722 343.799 30.028 343.799 30.4C343.799 30.796 343.661 31.132 343.385 31.408C343.121 31.672 342.779 31.804 342.359 31.804Z" fill="#5C5C5C"/>
</svg>
