<svg width="8" height="8" viewBox="0 0 8 8" fill="none" xmlns="http://www.w3.org/2000/svg">
<path d="M6.75 2.03125H5.6875L5.43437 1.32188C5.41689 1.27333 5.38484 1.23138 5.34261 1.20173C5.30038 1.17209 5.25003 1.1562 5.19844 1.15625H2.80156C2.69609 1.15625 2.60156 1.22266 2.56641 1.32188L2.3125 2.03125H1.25C0.904687 2.03125 0.625 2.31094 0.625 2.65625V6.21875C0.625 6.56406 0.904687 6.84375 1.25 6.84375H6.75C7.09531 6.84375 7.375 6.56406 7.375 6.21875V2.65625C7.375 2.31094 7.09531 2.03125 6.75 2.03125ZM4 5.59375C3.30937 5.59375 2.75 5.03438 2.75 4.34375C2.75 3.65312 3.30937 3.09375 4 3.09375C4.69063 3.09375 5.25 3.65312 5.25 4.34375C5.25 5.03438 4.69063 5.59375 4 5.59375ZM3.25 4.34375C3.25 4.54266 3.32902 4.73343 3.46967 4.87408C3.61032 5.01473 3.80109 5.09375 4 5.09375C4.19891 5.09375 4.38968 5.01473 4.53033 4.87408C4.67098 4.73343 4.75 4.54266 4.75 4.34375C4.75 4.14484 4.67098 3.95407 4.53033 3.81342C4.38968 3.67277 4.19891 3.59375 4 3.59375C3.80109 3.59375 3.61032 3.67277 3.46967 3.81342C3.32902 3.95407 3.25 4.14484 3.25 4.34375Z" fill="white"/>
</svg>
