<svg width="24" height="24" viewBox="0 0 24 24" fill="none" xmlns="http://www.w3.org/2000/svg">
<path d="M23.88 10.7089C23.88 10.5627 23.808 10.4165 23.772 10.2703C23.7165 10.0124 23.6443 9.75921 23.556 9.51273C23.496 9.35324 23.412 9.19375 23.34 9.02096C23.268 8.84818 23.16 8.62223 23.052 8.43616C22.944 8.25008 22.8 8.15704 22.8 8.05072C22.8 7.94439 22.56 7.71844 22.428 7.55895C22.296 7.39946 22.176 7.29313 22.044 7.16022L21.6 6.72161L21.168 6.40263C20.9984 6.28768 20.822 6.18555 20.64 6.09693L20.172 5.85769C19.976 5.77729 19.7756 5.7107 19.572 5.65833C19.4107 5.60578 19.2463 5.56581 19.08 5.53871H18.864C18.4018 3.9428 17.4973 2.54876 16.2791 1.55456C15.0609 0.560364 13.5908 0.0165576 12.0777 0.000372067C10.5645 -0.0158134 9.08523 0.496445 7.84989 1.4644C6.61456 2.43235 5.68597 3.80678 5.196 5.39251H4.98C4.81368 5.41961 4.64928 5.45958 4.488 5.51213C4.2844 5.5645 4.084 5.63109 3.888 5.71149L3.42 5.95073C3.23799 6.03935 3.06159 6.14148 2.892 6.25642L2.46 6.72161L2.016 7.13363C1.884 7.26654 1.752 7.38616 1.632 7.53236C1.512 7.67857 1.38 7.86464 1.26 8.02413C1.14 8.18363 1.044 8.32983 0.948 8.50261C0.852 8.6754 0.756 8.88805 0.66 9.08742C0.564 9.28678 0.504 9.41969 0.444 9.57919C0.35573 9.82567 0.283545 10.0788 0.228 10.3368C0.228 10.483 0.144 10.6292 0.12 10.7754C0.0453079 11.1913 0.00514048 11.614 0 12.038C0.00562549 12.4438 0.0417502 12.8484 0.108 13.2475C0.108 13.3804 0.168 13.5 0.192 13.633C0.251313 13.8941 0.323419 14.1514 0.408 14.4038L0.552 14.7893C0.657634 15.0456 0.777876 15.2942 0.912 15.5336L1.08 15.826C1.09726 15.8632 1.11734 15.8988 1.14 15.9323L1.2 16.0253C1.75888 16.8507 2.48359 17.5206 3.31672 17.982C4.14985 18.4434 5.06853 18.6836 6 18.6836C6.00268 17.9797 6.2573 17.3057 6.708 16.8095C7.15602 16.3103 7.76451 16.0283 8.4 16.0253C8.82213 16.0209 9.23724 16.1451 9.6 16.3842V12.038C9.6 11.333 9.85286 10.6569 10.3029 10.1584C10.753 9.65988 11.3635 9.37982 12 9.37982C12.6365 9.37982 13.247 9.65988 13.6971 10.1584C14.1471 10.6569 14.4 11.333 14.4 12.038V16.5171C14.7646 16.2829 15.1785 16.1591 15.6 16.1583C16.2501 16.165 16.8714 16.4565 17.328 16.969C17.732 17.4316 17.9708 18.0408 18 18.6836C18.9315 18.6836 19.8502 18.4434 20.6833 17.982C21.5164 17.5206 22.2411 16.8507 22.8 16.0253L22.86 15.9589C22.8827 15.9254 22.9027 15.8898 22.92 15.8526L23.088 15.5602C23.2221 15.3208 23.3424 15.0722 23.448 14.8159L23.592 14.4304C23.6766 14.178 23.7487 13.9207 23.808 13.6595C23.808 13.5266 23.868 13.407 23.892 13.2741C23.9596 12.8662 23.9957 12.4527 24 12.038C23.9986 11.5918 23.9584 11.1467 23.88 10.7089Z" fill="#9F9F9F"/>
<path d="M14.7722 17.8596L13.2002 19.5342V12.0381C13.2002 11.6856 13.0738 11.3475 12.8488 11.0983C12.6237 10.849 12.3185 10.709 12.0002 10.709C11.682 10.709 11.3767 10.849 11.1517 11.0983C10.9267 11.3475 10.8002 11.6856 10.8002 12.0381V19.4678L9.25222 17.74C9.14034 17.616 9.00751 17.5177 8.86132 17.4507C8.71514 17.3836 8.55845 17.3491 8.40022 17.3491C8.24199 17.3491 8.08531 17.3836 7.93912 17.4507C7.79294 17.5177 7.66011 17.616 7.54822 17.74C7.43634 17.8639 7.34758 18.011 7.28703 18.1729C7.22648 18.3348 7.19531 18.5084 7.19531 18.6836C7.19531 18.8589 7.22648 19.0324 7.28703 19.1943C7.34758 19.3562 7.43634 19.5034 7.54822 19.6273L11.1482 23.6146C11.2604 23.7378 11.3933 23.8352 11.5395 23.9014C11.6857 23.9675 11.8423 24.001 12.0002 24C12.3092 23.9987 12.6058 23.8654 12.8282 23.6279L16.4282 19.7735C16.5556 19.6571 16.6598 19.5129 16.7346 19.3498C16.8093 19.1868 16.8528 19.0084 16.8624 18.8259C16.8721 18.6434 16.8476 18.4606 16.7905 18.289C16.7335 18.1174 16.6451 17.9607 16.5309 17.8287C16.4166 17.6967 16.2791 17.5922 16.1267 17.5218C15.9744 17.4513 15.8105 17.4165 15.6455 17.4194C15.4804 17.4223 15.3177 17.4629 15.1674 17.5386C15.0171 17.6144 14.8826 17.7236 14.7722 17.8596Z" fill="#9F9F9F"/>
<path d="M23.88 10.7089C23.88 10.5627 23.808 10.4165 23.772 10.2703C23.7165 10.0124 23.6443 9.75921 23.556 9.51273C23.496 9.35324 23.412 9.19375 23.34 9.02096C23.268 8.84818 23.16 8.62223 23.052 8.43616C22.944 8.25008 22.8 8.15704 22.8 8.05072C22.8 7.94439 22.56 7.71844 22.428 7.55895C22.296 7.39946 22.176 7.29313 22.044 7.16022L21.6 6.72161L21.168 6.40263C20.9984 6.28768 20.822 6.18555 20.64 6.09693L20.172 5.85769C19.976 5.77729 19.7756 5.7107 19.572 5.65833C19.4107 5.60578 19.2463 5.56581 19.08 5.53871H18.864C18.4018 3.9428 17.4973 2.54876 16.2791 1.55456C15.0609 0.560364 13.5908 0.0165576 12.0777 0.000372067C10.5645 -0.0158134 9.08523 0.496445 7.84989 1.4644C6.61456 2.43235 5.68597 3.80678 5.196 5.39251H4.98C4.81368 5.41961 4.64928 5.45958 4.488 5.51213C4.2844 5.5645 4.084 5.63109 3.888 5.71149L3.42 5.95073C3.23799 6.03935 3.06159 6.14148 2.892 6.25642L2.46 6.72161L2.016 7.13363C1.884 7.26654 1.752 7.38616 1.632 7.53236C1.512 7.67857 1.38 7.86464 1.26 8.02413C1.14 8.18363 1.044 8.32983 0.948 8.50261C0.852 8.6754 0.756 8.88805 0.66 9.08742C0.564 9.28678 0.504 9.41969 0.444 9.57919C0.35573 9.82567 0.283545 10.0788 0.228 10.3368C0.228 10.483 0.144 10.6292 0.12 10.7754C0.0453079 11.1913 0.00514048 11.614 0 12.038C0.00562549 12.4438 0.0417502 12.8484 0.108 13.2475C0.108 13.3804 0.168 13.5 0.192 13.633C0.251313 13.8941 0.323419 14.1514 0.408 14.4038L0.552 14.7893C0.657634 15.0456 0.777876 15.2942 0.912 15.5336L1.08 15.826C1.09726 15.8632 1.11734 15.8988 1.14 15.9323L1.2 16.0253C1.75888 16.8507 2.48359 17.5206 3.31672 17.982C4.14985 18.4434 5.06853 18.6836 6 18.6836C6.00268 17.9797 6.2573 17.3057 6.708 16.8095C7.15602 16.3103 7.76451 16.0283 8.4 16.0253C8.82213 16.0209 9.23724 16.1451 9.6 16.3842V12.038C9.6 11.333 9.85286 10.6569 10.3029 10.1584C10.753 9.65988 11.3635 9.37982 12 9.37982C12.6365 9.37982 13.247 9.65988 13.6971 10.1584C14.1471 10.6569 14.4 11.333 14.4 12.038V16.5171C14.7646 16.2829 15.1785 16.1591 15.6 16.1583C16.2501 16.165 16.8714 16.4565 17.328 16.969C17.732 17.4316 17.9708 18.0408 18 18.6836C18.9315 18.6836 19.8502 18.4434 20.6833 17.982C21.5164 17.5206 22.2411 16.8507 22.8 16.0253L22.86 15.9589C22.8827 15.9254 22.9027 15.8898 22.92 15.8526L23.088 15.5602C23.2221 15.3208 23.3424 15.0722 23.448 14.8159L23.592 14.4304C23.6766 14.178 23.7487 13.9207 23.808 13.6595C23.808 13.5266 23.868 13.407 23.892 13.2741C23.9596 12.8662 23.9957 12.4527 24 12.038C23.9986 11.5918 23.9584 11.1467 23.88 10.7089Z" fill="#9F9F9F"/>
<path d="M14.7722 17.8596L13.2002 19.5342V12.0381C13.2002 11.6856 13.0738 11.3475 12.8488 11.0983C12.6237 10.849 12.3185 10.709 12.0002 10.709C11.682 10.709 11.3767 10.849 11.1517 11.0983C10.9267 11.3475 10.8002 11.6856 10.8002 12.0381V19.4678L9.25222 17.74C9.14034 17.616 9.00751 17.5177 8.86132 17.4507C8.71514 17.3836 8.55845 17.3491 8.40022 17.3491C8.24199 17.3491 8.08531 17.3836 7.93912 17.4507C7.79294 17.5177 7.66011 17.616 7.54822 17.74C7.43634 17.8639 7.34758 18.011 7.28703 18.1729C7.22648 18.3348 7.19531 18.5084 7.19531 18.6836C7.19531 18.8589 7.22648 19.0324 7.28703 19.1943C7.34758 19.3562 7.43634 19.5034 7.54822 19.6273L11.1482 23.6146C11.2604 23.7378 11.3933 23.8352 11.5395 23.9014C11.6857 23.9675 11.8423 24.001 12.0002 24C12.3092 23.9987 12.6058 23.8654 12.8282 23.6279L16.4282 19.7735C16.5556 19.6571 16.6598 19.5129 16.7346 19.3498C16.8093 19.1868 16.8528 19.0084 16.8624 18.8259C16.8721 18.6434 16.8476 18.4606 16.7905 18.289C16.7335 18.1174 16.6451 17.9607 16.5309 17.8287C16.4166 17.6967 16.2791 17.5922 16.1267 17.5218C15.9744 17.4513 15.8105 17.4165 15.6455 17.4194C15.4804 17.4223 15.3177 17.4629 15.1674 17.5386C15.0171 17.6144 14.8826 17.7236 14.7722 17.8596Z" fill="#9F9F9F"/>
</svg>
