<svg width="24" height="24" viewBox="0 0 24 24" fill="none" xmlns="http://www.w3.org/2000/svg">
<g clip-path="url(#clip0)">
<path d="M9.43498 0C7.55408 0 6.02952 1.5261 6.02952 3.40884C6.02952 4.33984 6.402 5.18418 7.00636 5.7994H2e-05V11.4808C0.6245 10.7586 1.5478 10.3007 2.57686 10.3007C4.45774 10.3007 5.98232 11.8267 5.98232 13.7095C5.98232 15.5922 4.45774 17.1183 2.57684 17.1183C1.5478 17.1183 0.6245 16.6603 0 15.9382V24H7.36C6.58172 23.3752 6.08336 22.416 6.08336 21.3397C6.08336 19.4569 7.60794 17.9309 9.48884 17.9309C11.3697 17.9309 12.8943 19.457 12.8943 21.3397C12.8943 22.416 12.3959 23.3752 11.6176 24H18.1827V16.8789C18.7993 17.4978 19.6523 17.8803 20.5945 17.8803C22.4754 17.8803 24 16.3542 24 14.4715C24 12.5887 22.4754 11.0627 20.5945 11.0627C19.6523 11.0627 18.7993 11.4452 18.1827 12.0641V5.79938H11.8636C12.4682 5.18412 12.8405 4.33996 12.8405 3.40882C12.8405 1.52608 11.3159 0 9.43498 0Z" fill="#9F9F9F"/>
</g>
<defs>
<clipPath id="clip0">
<rect width="24" height="24" fill="white"/>
</clipPath>
</defs>
</svg>
