<svg width="60" height="60" viewBox="0 0 60 60" fill="none" xmlns="http://www.w3.org/2000/svg">
<rect width="60" height="60" rx="10" fill="#EDEDED"/>
<path d="M41.5466 23.1444C43.1539 23.1444 44.4568 21.8415 44.4568 20.2343C44.4568 18.627 43.1539 17.3241 41.5466 17.3241C39.9394 17.3241 38.6365 18.627 38.6365 20.2343C38.6365 21.8415 39.9394 23.1444 41.5466 23.1444Z" fill="white"/>
<path d="M45.7264 26.8165C47.3337 26.8165 48.6366 25.5136 48.6366 23.9064C48.6366 22.2991 47.3337 20.9962 45.7264 20.9962C44.1192 20.9962 42.8163 22.2991 42.8163 23.9064C42.8163 25.5136 44.1192 26.8165 45.7264 26.8165Z" fill="white"/>
<path d="M41.9257 30.8673C43.5329 30.8673 44.8358 29.5644 44.8358 27.9572C44.8358 26.3499 43.5329 25.047 41.9257 25.047C40.3184 25.047 39.0155 26.3499 39.0155 27.9572C39.0155 29.5644 40.3184 30.8673 41.9257 30.8673Z" fill="white"/>
<path d="M37.625 27.0664C39.2322 27.0664 40.5352 25.7635 40.5352 24.1563C40.5352 22.549 39.2322 21.2461 37.625 21.2461C36.0178 21.2461 34.7148 22.549 34.7148 24.1563C34.7148 25.7635 36.0178 27.0664 37.625 27.0664Z" fill="white"/>
<path d="M18.4022 31.8671C22.5961 31.8671 25.996 28.4672 25.996 24.2733C25.996 20.0794 22.5961 16.6796 18.4022 16.6796C14.2083 16.6796 10.8085 20.0794 10.8085 24.2733C10.8085 28.4672 14.2083 31.8671 18.4022 31.8671Z" fill="#A8A8A8"/>
<path d="M23.0272 22.7736H19.8007V19.547C19.8007 19.4298 19.7069 19.3361 19.5858 19.3361H17.2499C17.1327 19.3361 17.0389 19.4298 17.0389 19.547V22.7736H13.8124C13.6952 22.7736 13.6014 22.8673 13.6014 22.9845V25.3243C13.6014 25.4415 13.6952 25.5353 13.8124 25.5353H17.0389V28.7618C17.0389 28.879 17.1366 28.9767 17.2499 28.9767H19.5858C19.703 28.9767 19.8007 28.879 19.8007 28.7618V25.5353H23.0272C23.1444 25.5353 23.2421 25.4376 23.2421 25.3243V22.9845C23.2421 22.8712 23.1444 22.7736 23.0272 22.7736Z" fill="white"/>
<path fill-rule="evenodd" clip-rule="evenodd" d="M25.0314 24.1561C25.0314 27.8085 22.0705 30.7694 18.4221 30.7694C14.7697 30.7694 11.8127 27.8085 11.8127 24.1561C11.8127 20.5038 14.7697 17.5428 18.4221 17.5428C22.0705 17.5428 25.0314 20.5038 25.0314 24.1561ZM18.4181 17.5428C14.7658 17.5428 11.8088 20.5038 11.8088 24.1561C11.8088 27.8085 14.7658 30.7694 18.4181 30.7694C22.0705 30.7694 25.0275 27.8085 25.0275 24.1561C25.0314 20.5038 22.0705 17.5428 18.4181 17.5428ZM41.5822 18.1639C41.3273 18.1639 41.0748 18.2142 40.8393 18.3117C40.6037 18.4093 40.3897 18.5523 40.2094 18.7326C40.0292 18.9128 39.8862 19.1269 39.7886 19.3624C39.691 19.5979 39.6408 19.8504 39.6408 20.1053C39.6408 20.3603 39.691 20.6127 39.7886 20.8483C39.8862 21.0838 40.0292 21.2979 40.2094 21.4781C40.3897 21.6584 40.6037 21.8014 40.8393 21.899C41.0748 21.9965 41.3273 22.0468 41.5822 22.0468C42.0971 22.0468 42.5909 21.8422 42.955 21.4781C43.3191 21.114 43.5236 20.6202 43.5236 20.1053C43.5236 19.5905 43.3191 19.0966 42.955 18.7326C42.5909 18.3685 42.0971 18.1639 41.5822 18.1639ZM35.59 24.1561C35.59 24.4111 35.6402 24.6635 35.7378 24.8991C35.8354 25.1346 35.9784 25.3486 36.1586 25.5289C36.3389 25.7092 36.5529 25.8522 36.7885 25.9498C37.024 26.0473 37.2765 26.0975 37.5314 26.0975C37.7864 26.0975 38.0388 26.0473 38.2744 25.9498C38.5099 25.8522 38.7239 25.7092 38.9042 25.5289C39.0845 25.3486 39.2275 25.1346 39.3251 24.8991C39.4226 24.6635 39.4728 24.4111 39.4728 24.1561C39.4728 23.6412 39.2683 23.1474 38.9042 22.7833C38.5401 22.4193 38.0463 22.2147 37.5314 22.2147C37.0165 22.2147 36.5227 22.4193 36.1586 22.7833C35.7946 23.1474 35.59 23.6412 35.59 24.1561ZM41.5822 30.1483C41.8372 30.1483 42.0896 30.0981 42.3252 30.0005C42.5607 29.903 42.7747 29.76 42.955 29.5797C43.1353 29.3994 43.2783 29.1854 43.3758 28.9499C43.4734 28.7143 43.5236 28.4619 43.5236 28.2069C43.5236 27.952 43.4734 27.6995 43.3758 27.464C43.2783 27.2284 43.1353 27.0144 42.955 26.8341C42.7747 26.6539 42.5607 26.5108 42.3252 26.4133C42.0896 26.3157 41.8372 26.2655 41.5822 26.2655C41.0673 26.2655 40.5735 26.47 40.2094 26.8341C39.8453 27.1982 39.6408 27.692 39.6408 28.2069C39.6408 28.7218 39.8453 29.2156 40.2094 29.5797C40.5735 29.9438 41.0673 30.1483 41.5822 30.1483ZM47.5744 24.1561C47.5744 23.6412 47.3699 23.1474 47.0058 22.7833C46.6417 22.4193 46.1479 22.2147 45.633 22.2147C45.1181 22.2147 44.6243 22.4193 44.2602 22.7833C43.8961 23.1474 43.6916 23.6412 43.6916 24.1561C43.6916 25.2303 44.5588 26.0975 45.633 26.0975C46.1479 26.0975 46.6417 25.893 47.0058 25.5289C47.3699 25.1648 47.5744 24.671 47.5744 24.1561ZM18.4181 17.5428C14.7658 17.5428 11.8088 20.5038 11.8088 24.1561C11.8088 27.8085 14.7658 30.7694 18.4181 30.7694C22.0705 30.7694 25.0275 27.8085 25.0275 24.1561C25.0314 20.5038 22.0705 17.5428 18.4181 17.5428ZM54.4806 38.5429L53.0549 23.0975C52.5158 17.2343 47.59 12.6405 41.5861 12.6405H18.4221C12.4181 12.6405 7.48846 17.2343 6.9494 23.0975L5.51971 38.5429C5.18768 42.5272 5.59783 45.9022 8.74627 47.0585C11.0822 47.9139 13.4885 47.0585 16.9416 43.496L23.5549 36.285H36.4377L43.051 43.496C46.5041 47.0585 48.9142 47.9139 51.2463 47.0585C54.3986 45.8983 54.8127 42.5272 54.4806 38.5429Z" fill="#5059C9"/>
</svg>
