<svg width="12" height="14" viewBox="0 0 12 14" fill="none" xmlns="http://www.w3.org/2000/svg">
<path d="M9.44448 1.20129L6.1742 4.74409L2.90392 1.20129C2.50263 0.766555 1.85176 0.766555 1.45047 1.20129L0.723737 1.98858C0.322446 2.42331 0.322446 3.12842 0.723736 3.56315L3.99402 7.10596L0.723736 10.6488C0.322446 11.0835 0.322446 11.7886 0.723737 12.2233L1.45047 13.0106C1.85176 13.4454 2.50263 13.4454 2.90392 13.0106L6.1742 9.46783L9.44448 13.0106C9.84577 13.4454 10.4966 13.4454 10.8979 13.0106L11.6247 12.2233C12.026 11.7886 12.026 11.0835 11.6247 10.6488L8.35439 7.10596L11.6247 3.56315C12.026 3.12842 12.026 2.42331 11.6247 1.98858L10.8979 1.20129C10.4966 0.766555 9.84577 0.766555 9.44448 1.20129Z" fill="#363B3F"/>
</svg>
