<svg width="24" height="24" viewBox="0 0 24 24" fill="none" xmlns="http://www.w3.org/2000/svg">
<path d="M12.8222 19.5691L21.8222 6.56907C21.926 6.41904 21.9868 6.24348 21.998 6.06138C22.0091 5.87929 21.9703 5.6976 21.8856 5.536C21.801 5.3744 21.6737 5.23903 21.5176 5.14457C21.3616 5.0501 21.1826 5.00013 21.0002 5.00007L3.00017 5.00007C2.81765 4.99995 2.63858 5.04979 2.48236 5.14418C2.32614 5.23857 2.19873 5.37392 2.11395 5.53556C2.02916 5.69719 1.99023 5.87895 2.00138 6.06113C2.01252 6.24332 2.07332 6.41898 2.17717 6.56907L11.1772 19.5691C11.2696 19.7015 11.3927 19.8097 11.5359 19.8844C11.6791 19.959 11.8382 19.998 11.9997 19.998C12.1612 19.998 12.3203 19.959 12.4635 19.8844C12.6067 19.8097 12.7297 19.7015 12.8222 19.5691V19.5691Z" fill="#363B3F"/>
</svg>
