<svg width="28" height="32" viewBox="0 0 22 24" fill="none" xmlns="http://www.w3.org/2000/svg">
<path d="M21.7062 6.01875L14.9813 0.251786C14.7938 0.0910715 14.5375 0 14.2719 0H1C0.446875 0 0 0.383036 0 0.857143V23.1429C0 23.617 0.446875 24 1 24H21C21.5531 24 22 23.617 22 23.1429V6.62411C22 6.39643 21.8937 6.17946 21.7062 6.01875ZM7.5 9.05357C8.19063 9.05357 8.75 9.53304 8.75 10.125C8.75 10.717 8.19063 11.1964 7.5 11.1964C6.80937 11.1964 6.25 10.717 6.25 10.125C6.25 9.53304 6.80937 9.05357 7.5 9.05357ZM16.75 16.9286H5.25C5.04063 16.9286 4.925 16.7223 5.05313 16.583L8.17188 13.1759C8.19526 13.1503 8.22514 13.1296 8.25925 13.1153C8.29336 13.1011 8.33081 13.0937 8.36875 13.0937C8.40669 13.0937 8.44414 13.1011 8.47825 13.1153C8.51236 13.1296 8.54224 13.1503 8.56563 13.1759L9.85 14.5795L12.2812 11.9223C12.3046 11.8967 12.3345 11.876 12.3686 11.8618C12.4027 11.8475 12.4402 11.8401 12.4781 11.8401C12.5161 11.8401 12.5535 11.8475 12.5876 11.8618C12.6217 11.876 12.6516 11.8967 12.675 11.9223L16.9406 16.583C17.075 16.7223 16.9562 16.9286 16.75 16.9286ZM13.8125 7.01786V1.97679L19.6938 7.01786H13.8125Z" fill="#9F9F9F"/>
</svg>
