<svg width="30" height="31" viewBox="0 0 30 31" fill="none" xmlns="http://www.w3.org/2000/svg">
<path d="M25.3125 7.521H21.5625V5.17725C21.5625 4.14307 20.7217 3.30225 19.6875 3.30225H10.3125C9.27832 3.30225 8.4375 4.14307 8.4375 5.17725V7.521H4.6875C4.16895 7.521 3.75 7.93994 3.75 8.4585V9.396C3.75 9.5249 3.85547 9.63037 3.98438 9.63037H5.75391L6.47754 24.9526C6.52441 25.9517 7.35059 26.7397 8.34961 26.7397H21.6504C22.6523 26.7397 23.4756 25.9546 23.5225 24.9526L24.2461 9.63037H26.0156C26.1445 9.63037 26.25 9.5249 26.25 9.396V8.4585C26.25 7.93994 25.8311 7.521 25.3125 7.521ZM19.4531 7.521H10.5469V5.41162H19.4531V7.521Z" fill="#9F9F9F"/>
</svg>
