<svg width="26" height="22" viewBox="0 0 26 22" fill="none" xmlns="http://www.w3.org/2000/svg">
<path d="M10.2917 2.75C12.1592 2.75 13.9503 3.37775 15.2709 4.49516C16.5914 5.61256 17.3333 7.12809 17.3333 8.70833C17.3333 10.1842 16.6942 11.5408 15.6433 12.5858L15.9358 12.8333H16.7917L22.2083 17.4167L20.5833 18.7917L15.1667 14.2083V13.4842L14.8742 13.2367C13.5964 14.1595 11.9716 14.6666 10.2917 14.6667C8.4241 14.6667 6.63303 14.0389 5.31246 12.9215C3.99189 11.8041 3.25 10.2886 3.25 8.70833C3.25 7.12809 3.99189 5.61256 5.31246 4.49516C6.63303 3.37775 8.4241 2.75 10.2917 2.75V2.75ZM10.2917 4.58333C7.58333 4.58333 5.41667 6.41667 5.41667 8.70833C5.41667 11 7.58333 12.8333 10.2917 12.8333C13 12.8333 15.1667 11 15.1667 8.70833C15.1667 6.41667 13 4.58333 10.2917 4.58333Z" fill="#3F3D56"/>
</svg>
