<svg width="646" height="564" viewBox="0 0 646 564" fill="none" xmlns="http://www.w3.org/2000/svg">
<g clip-path="url(#clip0_1933:1798)">
<path d="M610.561 509.071L611.559 486.637C621.96 481.077 633.561 478.141 645.354 478.082C629.123 491.352 631.151 516.933 620.147 534.779C616.672 540.318 611.995 545.005 606.462 548.491C600.93 551.978 594.684 554.174 588.187 554.919L574.604 563.235C572.741 552.845 573.151 542.174 575.809 531.957C578.466 521.741 583.307 512.222 589.997 504.056C593.796 499.513 598.152 495.466 602.962 492.01C606.215 500.588 610.561 509.071 610.561 509.071Z" fill="#F2F2F2"/>
<path d="M529.903 561.874C559.966 561.874 584.338 537.503 584.338 507.44C584.338 477.376 559.966 453.005 529.903 453.005C499.84 453.005 475.469 477.376 475.469 507.44C475.469 537.503 499.84 561.874 529.903 561.874Z" fill="#6C63FF"/>
<path d="M507.688 486.148C506.941 490.162 505.716 494.072 504.039 497.795C494.436 518.108 521.782 511.487 531.554 511.487C542.239 511.487 552.462 517.105 550.901 492.141C550.234 481.477 542.239 472.794 531.554 472.794C522.428 472.794 509.596 476.851 507.688 486.148Z" fill="#2F2E41"/>
<path d="M529.953 511.482C538.636 511.482 545.674 504.444 545.674 495.761C545.674 487.079 538.636 480.04 529.953 480.04C521.271 480.04 514.232 487.079 514.232 495.761C514.232 504.444 521.271 511.482 529.953 511.482Z" fill="#FFB6B6"/>
<path d="M519.277 479.736C522.032 478.056 525.187 477.148 528.414 477.105C531.64 477.063 534.818 477.888 537.616 479.494C540.414 481.1 542.729 483.428 544.32 486.236C545.91 489.043 546.717 492.226 546.656 495.452C538.645 497.463 530.229 499.002 521.687 495.933L519.669 490.995L518.48 495.936C515.878 497 513.27 497.9 510.661 495.926C510.555 492.709 511.295 489.521 512.807 486.68C514.319 483.839 516.55 481.444 519.277 479.736V479.736Z" fill="#2F2E41"/>
<path d="M572.229 543.635C562.798 554.366 549.526 560.957 535.277 561.987C521.029 563.017 506.947 558.402 496.071 549.139L500.74 536.111C501.795 533.797 503.46 531.814 505.557 530.374C507.653 528.935 510.102 528.093 512.641 527.939L515.611 527.757L522.693 521.648C522.693 521.648 541.777 520.967 541.494 520.641L553.054 527.594L553.044 527.546L557.588 527.824C560.127 527.977 562.576 528.819 564.673 530.258C566.769 531.698 568.434 533.682 569.489 535.996L572.229 543.635Z" fill="#3F3D56"/>
<path d="M180.869 105.749C180.85 116.515 177.639 127.034 171.641 135.975C165.644 144.916 157.13 151.878 147.176 155.98C137.223 160.083 126.276 161.141 115.72 159.022C105.165 156.903 95.4746 151.702 87.8753 144.075C80.276 136.449 75.1089 126.741 73.0272 116.178C70.9456 105.615 72.043 94.6717 76.1806 84.7324C80.3182 74.7931 87.3103 66.304 96.2726 60.3386C105.235 54.3731 115.765 51.1993 126.531 51.2183C133.685 51.2125 140.769 52.6203 147.377 55.3611C153.985 58.1018 159.986 62.1214 165.035 67.1887C170.084 72.2561 174.083 78.2713 176.8 84.8888C179.517 91.5063 180.9 98.5956 180.869 105.749V105.749Z" fill="#F2F2F2"/>
<path d="M100.205 89.9452C102.455 82.7718 107.574 76.1927 114.653 73.7677C121.732 71.3427 132.098 75.0368 137.419 80.3407C147.154 90.0427 149.53 123.372 142.842 133.905C141.511 133.835 136.921 133.783 135.575 133.732L133.67 127.384V133.67C131.525 133.603 129.363 133.558 127.184 133.532C119.88 133.442 112.895 130.523 107.698 125.389C102.501 120.255 99.497 113.306 99.3173 106.003C99.1431 99.0168 99.3176 92.772 100.205 89.9452Z" fill="#CCCCCC"/>
<path d="M124.627 113.719C133.195 113.719 140.141 106.774 140.141 98.2058C140.141 89.638 133.195 82.6924 124.627 82.6924C116.059 82.6924 109.114 89.638 109.114 98.2058C109.114 106.774 116.059 113.719 124.627 113.719Z" fill="#CCCCCC"/>
<path d="M111.238 84.5813L129.1 75.6372C132.752 77.2828 135.897 79.8754 138.21 83.1461C140.522 86.4169 141.917 90.2466 142.25 94.2382L142.695 99.5712L135.215 97.6672L134.396 90.848L133.126 97.1353L129.674 96.257L129.707 85.6701L126.253 96.2495L113.924 93.417L111.238 84.5813Z" fill="#CCCCCC"/>
<path d="M165.828 143.675C156.398 154.406 143.125 160.997 128.877 162.027C114.628 163.057 100.546 158.442 89.6709 149.179L94.3398 136.151C95.395 133.837 97.06 131.854 99.1565 130.414C101.253 128.975 103.702 128.133 106.24 127.979L109.21 127.797L116.293 121.688C116.293 121.688 135.377 121.007 135.094 120.681L146.653 127.634L146.644 127.586L151.188 127.864C153.727 128.017 156.176 128.859 158.272 130.298C160.369 131.738 162.034 133.722 163.088 136.036L165.828 143.675Z" fill="#CCCCCC"/>
<path d="M54.8221 428.087C84.8854 428.087 109.257 403.715 109.257 373.652C109.257 343.589 84.8854 319.218 54.8221 319.218C24.7588 319.218 0.387695 343.589 0.387695 373.652C0.387695 403.715 24.7588 428.087 54.8221 428.087Z" fill="#F2F2F2"/>
<path d="M32.6061 352.361C31.859 356.375 30.634 360.285 28.9571 364.008C19.3548 384.321 46.7003 377.7 56.4727 377.7C67.1574 377.7 77.3804 383.318 75.819 358.354C75.152 347.69 67.1573 339.007 56.4727 339.007C47.3462 339.007 34.5145 343.064 32.6061 352.361Z" fill="#CCCCCC"/>
<path d="M54.8719 377.695C63.5544 377.695 70.593 370.656 70.593 361.974C70.593 353.292 63.5544 346.253 54.8719 346.253C46.1894 346.253 39.1509 353.292 39.1509 361.974C39.1509 370.656 46.1894 377.695 54.8719 377.695Z" fill="#CCCCCC"/>
<path d="M44.1957 345.948C46.9506 344.269 50.106 343.36 53.3321 343.318C56.5582 343.275 59.7364 344.1 62.5346 345.707C65.3327 347.313 67.6479 349.641 69.2382 352.449C70.8284 355.256 71.6352 358.439 71.5742 361.665C63.5635 363.676 55.1478 365.215 46.605 362.146L44.5875 357.208L43.3981 362.149C40.7965 363.213 38.1882 364.112 35.5799 362.139C35.4734 358.922 36.2131 355.734 37.725 352.893C39.237 350.052 41.4682 347.657 44.1957 345.948Z" fill="#CCCCCC"/>
<path d="M97.147 409.848C87.7165 420.579 74.4444 427.17 60.1958 428.2C45.9473 429.23 31.8653 424.615 20.9897 415.352L25.6587 402.324C26.7138 400.01 28.3789 398.027 30.4753 396.587C32.5718 395.148 35.0205 394.306 37.559 394.152L40.5293 393.97L47.6119 387.861C47.6119 387.861 66.6957 387.18 66.4125 386.854L77.9722 393.807L77.9626 393.759L82.5067 394.037C85.0454 394.19 87.4945 395.032 89.5911 396.471C91.6876 397.911 93.3525 399.894 94.4071 402.209L97.147 409.848Z" fill="#CCCCCC"/>
<path d="M289.014 378.337C337.689 378.337 377.148 338.878 377.148 290.203C377.148 241.528 337.689 202.069 289.014 202.069C240.339 202.069 200.88 241.528 200.88 290.203C200.88 338.878 240.339 378.337 289.014 378.337Z" fill="#F2F2F2"/>
<path d="M292.606 299.193C308.478 299.193 321.344 286.326 321.344 270.454C321.344 254.582 308.478 241.715 292.606 241.715C276.734 241.715 263.867 254.582 263.867 270.454C263.867 286.326 276.734 299.193 292.606 299.193Z" fill="#CCCCCC"/>
<path d="M317.909 251.469C317.909 251.469 325.392 237.164 308.93 235.864C308.93 235.864 294.896 223.133 280.591 233.537C280.591 233.537 272.789 233.537 268.522 242.366C268.522 242.366 262.386 240.039 261.037 246.267C261.037 246.267 256.547 259.271 261.037 270.975C265.528 282.679 267.019 283.979 267.019 283.979C267.019 283.979 263.869 269.455 281.829 268.155C299.789 266.855 316.265 255.603 317.762 269.908C319.259 284.212 320.904 277.75 320.904 277.75C320.904 277.75 335.12 257.321 317.909 251.469Z" fill="#CCCCCC"/>
<path d="M354.807 348.807C339.538 366.18 318.049 376.853 294.98 378.52C271.91 380.187 249.11 372.716 231.502 357.718L239.061 336.625C240.77 332.878 243.466 329.667 246.86 327.336C250.254 325.006 254.219 323.643 258.329 323.394L263.138 323.098L274.605 313.208C274.605 313.208 305.504 312.105 305.045 311.577L323.761 322.834L323.746 322.757L331.103 323.207C335.213 323.455 339.179 324.818 342.573 327.149C345.968 329.48 348.663 332.691 350.371 336.438L354.807 348.807Z" fill="#CCCCCC"/>
<path d="M143.856 290.494C173.92 290.494 198.291 266.123 198.291 236.059C198.291 205.996 173.92 181.625 143.856 181.625C113.793 181.625 89.4219 205.996 89.4219 236.059C89.4219 266.123 113.793 290.494 143.856 290.494Z" fill="#F2F2F2"/>
<path d="M142.354 242.802C151.95 242.802 159.73 235.023 159.73 225.426C159.73 215.83 151.95 208.05 142.354 208.05C132.757 208.05 124.978 215.83 124.978 225.426C124.978 235.023 132.757 242.802 142.354 242.802Z" fill="#CCCCCC"/>
<path d="M184.694 272.48C175.263 283.21 161.991 289.802 147.743 290.832C133.494 291.862 119.412 287.247 108.537 277.984L113.206 264.956C114.261 262.642 115.926 260.659 118.022 259.219C120.119 257.78 122.567 256.938 125.106 256.784L128.076 256.602L135.159 250.493C135.159 250.493 154.243 249.812 153.959 249.485L165.519 256.438L165.509 256.39L170.054 256.669C172.592 256.822 175.041 257.663 177.138 259.103C179.235 260.543 180.899 262.526 181.954 264.841L184.694 272.48Z" fill="#CCCCCC"/>
<path d="M160.679 214.65C159.211 209.395 155.875 204.856 151.298 201.886C147.65 199.552 143.097 198.361 138.965 199.595C134.832 200.829 131.41 204.885 131.681 209.267C130.915 209.066 130.108 209.083 129.352 209.317C128.596 209.55 127.92 209.991 127.401 210.589C126.364 211.813 125.643 213.273 125.301 214.84C123.975 219.753 124.063 224.941 125.555 229.806L125.473 230.505C127.489 230.171 129.018 228.441 129.969 226.598C130.92 224.755 131.468 222.71 132.498 220.912C133.529 219.114 135.241 217.51 137.283 217.454L137.103 220.575L142.373 217.86C141.955 218.859 141.537 219.859 141.119 220.858C142.654 220.217 144.188 219.576 145.722 218.935C145.55 219.896 145.379 220.857 145.208 221.818C145.61 220.984 146.177 220.24 146.875 219.631C147.573 219.022 148.388 218.561 149.269 218.276C150.151 217.991 151.081 217.888 152.003 217.973C152.925 218.058 153.821 218.329 154.636 218.77C156.47 220.004 157.793 221.865 158.356 224.003C158.913 226.137 159.212 228.33 159.247 230.535C161.617 225.584 162.126 219.945 160.679 214.65V214.65Z" fill="#CCCCCC"/>
<path d="M259.375 279.902V279.934C259.325 279.815 259.292 279.69 259.277 279.562L259.375 279.902Z" fill="#F2F2F2"/>
<path d="M259.374 279.935C259.455 280.275 259.552 280.615 259.649 280.938C259.517 280.975 259.381 281.002 259.245 281.019L259.374 279.935Z" fill="#F2F2F2"/>
<path d="M377.147 290.021C377.144 312.795 368.324 334.683 352.538 351.097C336.752 367.511 315.225 377.176 292.469 378.067V201.976C315.226 202.862 336.756 212.526 352.543 228.941C368.33 245.356 377.148 267.247 377.147 290.021V290.021Z" fill="#6C63FF"/>
<path d="M259.277 279.562L259.375 279.902V279.934C259.325 279.815 259.292 279.69 259.277 279.562V279.562Z" fill="#FFB6B6"/>
<path d="M314.714 272.811C314.72 275.137 314.431 277.454 313.856 279.708V279.724C312.562 284.808 309.875 289.429 306.096 293.068C302.317 296.706 297.597 299.218 292.468 300.319V245.286C298.764 246.639 304.406 250.109 308.454 255.118C312.502 260.126 314.712 266.371 314.714 272.811Z" fill="#A0616A"/>
<path d="M355.127 348.988C347.26 357.962 337.646 365.238 326.873 370.371C316.1 375.504 304.393 378.387 292.468 378.844V312.672C299.349 312.348 305.583 312.009 305.372 311.766L324.089 323.018L324.073 322.937L331.423 323.391C335.534 323.635 339.501 324.996 342.896 327.326C346.291 329.657 348.986 332.87 350.69 336.619L354.949 348.486L355.127 348.988Z" fill="#3F3D56"/>
<path d="M259.374 279.935C259.455 280.275 259.552 280.615 259.649 280.938C259.517 280.975 259.381 281.002 259.245 281.019L259.374 279.935Z" fill="#2F2E41"/>
<path d="M313.937 281.068C313.905 280.615 313.889 280.177 313.856 279.724V279.708C313.763 276.595 313.306 273.503 312.496 270.495C311.444 267.095 309.469 263.841 306.473 262.028C301.988 259.308 295.69 260.781 292.468 264.861V230.909C295.518 231.705 298.42 232.984 301.066 234.697C308.476 239.503 313.877 246.85 316.253 255.357C318.591 263.927 317.77 273.053 313.937 281.068Z" fill="#2F2E41"/>
<path d="M291.257 564C290.978 564.014 290.704 563.916 290.496 563.729C290.288 563.542 290.163 563.28 290.147 563V0.999969C290.176 0.725599 290.305 0.471554 290.51 0.28688C290.715 0.102207 290.981 0 291.257 0C291.533 0 291.799 0.102207 292.004 0.28688C292.209 0.471554 292.338 0.725599 292.367 0.999969V563C292.351 563.28 292.226 563.542 292.018 563.729C291.81 563.916 291.537 564.014 291.257 564V564Z" fill="#2F2E41"/>
<path d="M401.821 262.696L371.163 255.176L330.288 220.425L337.094 209.62L374.122 233.208C374.122 233.208 398.62 239.428 406.999 246.6L401.821 262.696Z" fill="#FFB6B6"/>
<path d="M331.711 221.082C335.836 221.082 339.18 217.738 339.18 213.613C339.18 209.488 335.836 206.145 331.711 206.145C327.586 206.145 324.242 209.488 324.242 213.613C324.242 217.738 327.586 221.082 331.711 221.082Z" fill="#FFB6B6"/>
<path d="M403.261 242.587L374.83 230.994L361.166 247.22L371.317 255.583L398.99 262.775L399.01 262.848C400.953 270.012 413.451 274.875 423.593 277.694C426.938 278.62 430.51 278.242 433.587 276.636C436.664 275.03 439.016 272.315 440.168 269.041V269.041C441.002 266.62 441.141 264.014 440.571 261.517C440.002 259.021 438.745 256.734 436.943 254.915L427.733 245.68L403.261 242.587Z" fill="#E6E6E6"/>
<path d="M324.649 533.953L314.685 530.161L324.567 489.926L339.272 495.522L324.649 533.953Z" fill="#FFB6B6"/>
<path d="M328.429 531.667L325.624 530.6L316.369 521.981L308.807 524.2L308.806 524.2C305.489 522.939 301.807 523.046 298.57 524.499C295.333 525.952 292.805 528.631 291.543 531.947L291.389 532.354L323.516 544.578L328.429 531.667Z" fill="#2F2E41"/>
<path d="M425.371 550.657L414.711 550.656L409.639 509.537L425.373 509.538L425.371 550.657Z" fill="#FFB6B6"/>
<path d="M428.091 547.176L425.091 547.176L413.376 542.412L407.097 547.176H407.096C403.547 547.176 400.144 548.585 397.635 551.094C395.126 553.604 393.717 557.006 393.716 560.555V560.99L428.091 560.991L428.091 547.176Z" fill="#2F2E41"/>
<path d="M441.627 373.54C441.627 373.54 442.872 388.478 439.76 402.794C437.809 411.767 437.081 430.958 436.809 444.031C436.648 451.812 433.148 453.053 433.148 453.053L435.469 470.948L429.801 535.99L409.262 534.122L403.66 402.794L366.743 431.985L367.767 435.399C368.265 437.058 364.592 436.846 363.123 437.765L359.501 446.168C359.572 447.557 359.216 448.934 358.48 450.115C357.744 451.295 356.664 452.221 355.386 452.769L336.147 510L321.147 501L326.147 449L333.147 425L361.336 390.346L361.958 380.387L364.759 380.502L366.185 376.341L368.805 369.184L441.627 373.54Z" fill="#2F2E41"/>
<path d="M442.703 376.678L442.814 376.522C448.738 368.228 439.828 348.297 438.484 345.408C440.08 344.89 441.447 343.835 442.352 342.422C443.257 341.01 443.645 339.327 443.449 337.661L442.87 332.736L442.266 327.906L446.592 323.58L446.604 323.472L449.094 301.687L452.714 287.218C454.078 281.749 453.961 276.014 452.377 270.604C450.792 265.194 447.797 260.303 443.698 256.434L435.33 248.544L425.161 233.498H408.763L403.14 244.119C397.689 245.378 392.853 248.511 389.473 252.97C386.094 257.429 384.386 262.932 384.647 268.521L385.922 296.376L380.933 331.057L380.93 337.333L378.332 340.221C377.396 341.261 376.716 342.505 376.346 343.855C375.975 345.204 375.926 346.622 376.2 347.994L376.542 349.702C375.221 350.268 374.056 351.143 373.143 352.252C372.23 353.361 371.596 354.674 371.295 356.079L370.382 360.337C369.602 361.367 364.448 368.239 364.448 370.117C364.448 370.399 364.656 370.672 365.103 370.974C368.615 373.352 388.027 378.201 396.618 374.763C405.769 371.104 442.147 376.593 442.514 376.649L442.703 376.678Z" fill="#E6E6E6"/>
<path d="M414.844 228.641C426.838 228.641 436.561 218.918 436.561 206.923C436.561 194.929 426.838 185.206 414.844 185.206C402.849 185.206 393.126 194.929 393.126 206.923C393.126 218.918 402.849 228.641 414.844 228.641Z" fill="#FFB6B6"/>
<path d="M407.761 302.325L392.674 330.053L348.653 360.72L339.939 351.384L372.187 321.592C372.187 321.592 384.445 299.489 393.516 293.215L407.761 302.325Z" fill="#FFB6B6"/>
<path d="M342.429 365.077C346.554 365.077 349.898 361.733 349.898 357.608C349.898 353.483 346.554 350.139 342.429 350.139C338.304 350.139 334.96 353.483 334.96 357.608C334.96 361.733 338.304 365.077 342.429 365.077Z" fill="#FFB6B6"/>
<path d="M406.403 306.021L415.89 283.252L412.459 270.668C411.776 268.201 410.417 265.973 408.535 264.237C406.652 262.501 404.322 261.326 401.807 260.845V260.845C398.393 260.216 394.868 260.907 391.945 262.778C389.021 264.648 386.916 267.559 386.057 270.922C383.458 281.123 381.463 294.385 386.711 299.633L386.764 299.686L371.147 320.053L394.147 333.053L406.403 306.021Z" fill="#E6E6E6"/>
<path d="M436.301 191.957C434.535 189.577 431.997 187.885 430.056 185.646C429.078 184.347 428.027 183.105 426.909 181.926C424.563 179.976 421.603 178.919 418.553 178.941C415.244 178.856 411.962 179.551 408.972 180.97C405.981 182.389 403.367 184.492 401.341 187.109C399.763 186.184 398.184 185.259 396.606 184.333C395.983 185.974 395.359 187.615 394.736 189.256C394.224 188.812 393.572 188.562 392.894 188.553C392.216 188.543 391.556 188.774 391.032 189.204C390.509 189.634 390.154 190.236 390.031 190.903C389.909 191.57 390.026 192.258 390.363 192.847C389.987 191.686 388.266 191.44 387.318 192.207C386.878 192.632 386.552 193.161 386.369 193.744C386.186 194.328 386.152 194.948 386.27 195.548C386.464 196.875 387.051 198.114 387.955 199.105C388.859 200.096 390.038 200.794 391.342 201.11C393.402 201.569 395.799 201.087 397.447 202.404C398.768 203.46 399.167 205.382 400.516 206.403C402.178 207.662 404.526 207.08 406.592 207.358C408.393 207.667 410.012 208.639 411.131 210.084C412.249 211.529 412.785 213.34 412.633 215.161C412.886 213.997 413.366 212.894 414.046 211.915C414.394 211.432 414.876 211.06 415.431 210.844C415.987 210.628 416.593 210.579 417.176 210.701C419.058 211.265 419.366 213.829 418.91 215.74C417.7 220.807 413.117 228.997 413.117 228.997C419.068 231.344 426.158 229.124 430.75 224.67C435.342 220.215 437.734 213.908 438.775 207.595C439.659 202.243 439.533 196.314 436.301 191.957Z" fill="#2F2E41"/>
<path d="M632.892 561.81C632.892 561.967 632.862 562.121 632.802 562.266C632.742 562.411 632.655 562.542 632.544 562.653C632.434 562.763 632.302 562.851 632.158 562.911C632.013 562.97 631.858 563.001 631.702 563H351.412C351.096 563 350.793 562.875 350.57 562.652C350.347 562.428 350.222 562.126 350.222 561.81C350.222 561.495 350.347 561.192 350.57 560.969C350.793 560.746 351.096 560.62 351.412 560.62H631.702C631.858 560.62 632.013 560.65 632.158 560.71C632.302 560.769 632.434 560.857 632.544 560.968C632.655 561.078 632.742 561.21 632.802 561.354C632.862 561.499 632.892 561.654 632.892 561.81V561.81Z" fill="#CCCCCC"/>
</g>
<defs>
<clipPath id="clip0_1933:1798">
<rect width="645.354" height="564" fill="white"/>
</clipPath>
</defs>
</svg>
