<svg width="150" height="150" viewBox="0 0 150 150" fill="none" xmlns="http://www.w3.org/2000/svg">
<g clip-path="url(#clip0_1479:2270)">
<path d="M140.361 150V133.104C140.361 133.104 145.771 145.083 140.361 150Z" fill="#F1F1F1"/>
<path d="M140.695 149.997L130.469 138.571C130.469 138.571 141.377 141.821 140.695 149.997Z" fill="#F1F1F1"/>
<path d="M45.7529 5.14662C46.9205 5.14662 47.867 3.99451 47.867 2.57331C47.867 1.15211 46.9205 0 45.7529 0C44.5852 0 43.6387 1.15211 43.6387 2.57331C43.6387 3.99451 44.5852 5.14662 45.7529 5.14662Z" fill="#F1F1F1"/>
<path d="M40.38 11.6864C41.5477 11.6864 42.4942 10.5343 42.4942 9.11311C42.4942 7.69191 41.5477 6.53979 40.38 6.53979C39.2124 6.53979 38.2659 7.69191 38.2659 9.11311C38.2659 10.5343 39.2124 11.6864 40.38 11.6864Z" fill="#F1F1F1"/>
<path d="M39.0368 127.77C40.2044 127.77 41.151 126.618 41.151 125.197C41.151 123.775 40.2044 122.623 39.0368 122.623C37.8692 122.623 36.9226 123.775 36.9226 125.197C36.9226 126.618 37.8692 127.77 39.0368 127.77Z" fill="#F1F1F1"/>
<path d="M77.9274 113.479H0V18.6282H77.9274V113.479Z" fill="white"/>
<path d="M77.9274 113.479H0V18.6282H77.9274V113.479ZM1.15137 112.077H76.7761V20.0296H1.15137V112.077Z" fill="#E5E5E5"/>
<path d="M66.045 59.4031H16.0676V61.5504H66.045V59.4031Z" fill="#6C63FF"/>
<path d="M66.045 64.9863H16.0676V67.1337H66.045V64.9863Z" fill="#6C63FF"/>
<path d="M66.045 70.5693H16.0676V72.7167H66.045V70.5693Z" fill="#6C63FF"/>
<path d="M13.0339 62.193C13.6698 62.193 14.1853 61.5655 14.1853 60.7915C14.1853 60.0176 13.6698 59.3901 13.0339 59.3901C12.3981 59.3901 11.8826 60.0176 11.8826 60.7915C11.8826 61.5655 12.3981 62.193 13.0339 62.193Z" fill="#6C63FF"/>
<path d="M66.045 35.3457H16.0676V37.4931H66.045V35.3457Z" fill="#E5E5E5"/>
<path d="M66.045 40.9287H16.0676V43.0761H66.045V40.9287Z" fill="#E5E5E5"/>
<path d="M66.045 46.512H16.0676V48.6593H66.045V46.512Z" fill="#E5E5E5"/>
<path d="M13.0339 37.9017C13.6698 37.9017 14.1853 37.2743 14.1853 36.5003C14.1853 35.7263 13.6698 35.0989 13.0339 35.0989C12.3981 35.0989 11.8826 35.7263 11.8826 36.5003C11.8826 37.2743 12.3981 37.9017 13.0339 37.9017Z" fill="#E5E5E5"/>
<path d="M66.045 83.6943H16.0676V85.8417H66.045V83.6943Z" fill="#E5E5E5"/>
<path d="M66.045 89.2773H16.0676V91.4247H66.045V89.2773Z" fill="#E5E5E5"/>
<path d="M66.045 94.8606H16.0676V97.008H66.045V94.8606Z" fill="#E5E5E5"/>
<path d="M13.0339 86.2503C13.6698 86.2503 14.1853 85.6229 14.1853 84.8489C14.1853 84.0749 13.6698 83.4475 13.0339 83.4475C12.3981 83.4475 11.8826 84.0749 11.8826 84.8489C11.8826 85.6229 12.3981 86.2503 13.0339 86.2503Z" fill="#E5E5E5"/>
<path d="M149.808 149.94H92.4316C92.3807 149.94 92.3319 149.915 92.296 149.872C92.26 149.828 92.2397 149.768 92.2397 149.706C92.2397 149.645 92.26 149.585 92.296 149.541C92.3319 149.498 92.3807 149.473 92.4316 149.473H149.808C149.859 149.473 149.908 149.498 149.944 149.541C149.98 149.585 150 149.645 150 149.706C150 149.768 149.98 149.828 149.944 149.872C149.908 149.915 149.859 149.94 149.808 149.94Z" fill="#CBCBCB"/>
</g>
<defs>
<clipPath id="clip0_1479:2270">
<rect width="150" height="150" fill="white"/>
</clipPath>
</defs>
</svg>
