<svg width="188" height="155" viewBox="0 0 188 155" fill="none" xmlns="http://www.w3.org/2000/svg">
<ellipse cx="75.2532" cy="72.6719" rx="75" ry="72.5" fill="#EDEDED"/>
<g clip-path="url(#clip0_1479:2268)">
<path d="M178.361 155V138.104C178.361 138.104 183.771 150.083 178.361 155Z" fill="#F1F1F1"/>
<path d="M178.695 154.997L168.469 143.571C168.469 143.571 179.377 146.821 178.695 154.997Z" fill="#F1F1F1"/>
<path d="M83.7529 10.1466C84.9205 10.1466 85.867 8.99451 85.867 7.57331C85.867 6.15211 84.9205 5 83.7529 5C82.5852 5 81.6387 6.15211 81.6387 7.57331C81.6387 8.99451 82.5852 10.1466 83.7529 10.1466Z" fill="#F1F1F1"/>
<path d="M78.38 16.6864C79.5477 16.6864 80.4942 15.5343 80.4942 14.1131C80.4942 12.6919 79.5477 11.5398 78.38 11.5398C77.2124 11.5398 76.2659 12.6919 76.2659 14.1131C76.2659 15.5343 77.2124 16.6864 78.38 16.6864Z" fill="#F1F1F1"/>
<path d="M77.0368 132.77C78.2044 132.77 79.151 131.618 79.151 130.197C79.151 128.775 78.2044 127.623 77.0368 127.623C75.8692 127.623 74.9226 128.775 74.9226 130.197C74.9226 131.618 75.8692 132.77 77.0368 132.77Z" fill="#F1F1F1"/>
<path d="M115.927 118.479H38V23.6282H115.927V118.479Z" fill="white"/>
<path d="M115.927 118.479H38V23.6282H115.927V118.479ZM39.1514 117.077H114.776V25.0296H39.1514V117.077Z" fill="#E5E5E5"/>
<path d="M104.045 64.4031H54.0676V66.5504H104.045V64.4031Z" fill="#6C63FF"/>
<path d="M104.045 69.9863H54.0676V72.1337H104.045V69.9863Z" fill="#6C63FF"/>
<path d="M104.045 75.5693H54.0676V77.7167H104.045V75.5693Z" fill="#6C63FF"/>
<path d="M51.0339 67.193C51.6698 67.193 52.1853 66.5655 52.1853 65.7915C52.1853 65.0176 51.6698 64.3901 51.0339 64.3901C50.3981 64.3901 49.8826 65.0176 49.8826 65.7915C49.8826 66.5655 50.3981 67.193 51.0339 67.193Z" fill="#6C63FF"/>
<path d="M104.045 40.3457H54.0676V42.4931H104.045V40.3457Z" fill="#E5E5E5"/>
<path d="M104.045 45.9287H54.0676V48.0761H104.045V45.9287Z" fill="#E5E5E5"/>
<path d="M104.045 51.512H54.0676V53.6593H104.045V51.512Z" fill="#E5E5E5"/>
<path d="M51.0339 42.9017C51.6698 42.9017 52.1853 42.2743 52.1853 41.5003C52.1853 40.7263 51.6698 40.0989 51.0339 40.0989C50.3981 40.0989 49.8826 40.7263 49.8826 41.5003C49.8826 42.2743 50.3981 42.9017 51.0339 42.9017Z" fill="#E5E5E5"/>
<path d="M104.045 88.6943H54.0676V90.8417H104.045V88.6943Z" fill="#E5E5E5"/>
<path d="M104.045 94.2773H54.0676V96.4247H104.045V94.2773Z" fill="#E5E5E5"/>
<path d="M104.045 99.8606H54.0676V102.008H104.045V99.8606Z" fill="#E5E5E5"/>
<path d="M51.0339 91.2503C51.6698 91.2503 52.1853 90.6229 52.1853 89.8489C52.1853 89.0749 51.6698 88.4475 51.0339 88.4475C50.3981 88.4475 49.8826 89.0749 49.8826 89.8489C49.8826 90.6229 50.3981 91.2503 51.0339 91.2503Z" fill="#E5E5E5"/>
<path d="M187.808 154.94H130.432C130.381 154.94 130.332 154.915 130.296 154.872C130.26 154.828 130.24 154.768 130.24 154.706C130.24 154.645 130.26 154.585 130.296 154.541C130.332 154.498 130.381 154.473 130.432 154.473H187.808C187.859 154.473 187.908 154.498 187.944 154.541C187.98 154.585 188 154.645 188 154.706C188 154.768 187.98 154.828 187.944 154.872C187.908 154.915 187.859 154.94 187.808 154.94Z" fill="#CBCBCB"/>
</g>
<defs>
<clipPath id="clip0_1479:2268">
<rect width="150" height="150" fill="white" transform="translate(38 5)"/>
</clipPath>
</defs>
</svg>
