<svg width="5" height="5" viewBox="0 0 7 15" fill="none" xmlns="http://www.w3.org/2000/svg">
<path d="M0 1.3078C0 0.960948 0.131696 0.628304 0.366117 0.383045C0.600537 0.137785 0.918479 0 1.25 0L8.75 0C9.08152 0 9.39946 0.137785 9.63388 0.383045C9.8683 0.628304 10 0.960948 10 1.3078V6.53898C10 6.88583 9.8683 7.21848 9.63388 7.46374C9.39946 7.709 9.08152 7.84678 8.75 7.84678H2.75875C2.593 7.84682 2.43406 7.91574 2.31688 8.03837L0.53375 9.90395C0.490082 9.94975 0.434407 9.98097 0.373773 9.99365C0.313138 10.0063 0.25027 9.99992 0.193125 9.9752C0.135979 9.95049 0.0871262 9.9086 0.0527483 9.85482C0.0183704 9.80105 1.31343e-05 9.73781 0 9.67312L0 1.3078ZM3.125 3.92339C3.125 3.74997 3.05915 3.58364 2.94194 3.46101C2.82473 3.33839 2.66576 3.26949 2.5 3.26949C2.33424 3.26949 2.17527 3.33839 2.05806 3.46101C1.94085 3.58364 1.875 3.74997 1.875 3.92339C1.875 4.09682 1.94085 4.26314 2.05806 4.38577C2.17527 4.5084 2.33424 4.57729 2.5 4.57729C2.66576 4.57729 2.82473 4.5084 2.94194 4.38577C3.05915 4.26314 3.125 4.09682 3.125 3.92339ZM5.625 3.92339C5.625 3.74997 5.55915 3.58364 5.44194 3.46101C5.32473 3.33839 5.16576 3.26949 5 3.26949C4.83424 3.26949 4.67527 3.33839 4.55806 3.46101C4.44085 3.58364 4.375 3.74997 4.375 3.92339C4.375 4.09682 4.44085 4.26314 4.55806 4.38577C4.67527 4.5084 4.83424 4.57729 5 4.57729C5.16576 4.57729 5.32473 4.5084 5.44194 4.38577C5.55915 4.26314 5.625 4.09682 5.625 3.92339ZM7.5 4.57729C7.66576 4.57729 7.82473 4.5084 7.94194 4.38577C8.05915 4.26314 8.125 4.09682 8.125 3.92339C8.125 3.74997 8.05915 3.58364 7.94194 3.46101C7.82473 3.33839 7.66576 3.26949 7.5 3.26949C7.33424 3.26949 7.17527 3.33839 7.05806 3.46101C6.94085 3.58364 6.875 3.74997 6.875 3.92339C6.875 4.09682 6.94085 4.26314 7.05806 4.38577C7.17527 4.5084 7.33424 4.57729 7.5 4.57729V4.57729Z" fill="#9F9F9F"/>
</svg>
