<svg width="22" height="24" viewBox="0 0 22 24" fill="none" xmlns="http://www.w3.org/2000/svg">
<g clip-path="url(#clip0)">
<path d="M21.9998 9.02911C21.9998 7.47193 22.0004 5.91503 21.9995 4.35785C21.9992 3.97426 21.8486 3.84202 21.443 3.79375C20.583 3.69122 19.7134 3.62267 18.869 3.44873C16.1806 2.89549 13.7877 1.72589 11.5455 0.262675C11.0146 -0.0837778 11.0042 -0.0897756 10.4657 0.258106C7.49862 2.17488 4.32083 3.5744 0.654824 3.7909C0.0970867 3.82374 0.00529914 3.93913 0.0049942 4.45896C0.00468926 7.25971 -0.0123876 10.061 0.0184115 12.8615C0.0260351 13.5616 0.126056 14.2736 0.292859 14.9568C0.731059 16.7508 1.77243 18.2391 3.13888 19.5318C5.30152 21.578 7.91273 22.9595 10.7658 23.9666C10.9237 24.0223 11.1527 24.0048 11.311 23.9403C12.2984 23.5379 13.2998 23.1563 14.2506 22.6859C16.5109 21.5677 18.5317 20.159 20.0659 18.2085C21.1411 16.8416 21.8608 15.3258 21.9394 13.6175C22.0096 12.0906 21.9541 10.5589 21.9541 9.02911C21.9693 9.02911 21.9846 9.02911 21.9998 9.02911ZM17.3171 8.03202C17.2622 8.11571 17.2092 8.20053 17.1491 8.28108C14.8282 11.3974 12.5073 14.5138 10.1848 17.6293C9.79513 18.1523 9.39688 18.1517 8.98704 17.6524C7.74227 16.135 6.48957 14.6235 5.24419 13.1066C5.06428 12.8872 4.89595 12.6579 4.74104 12.4222C4.52179 12.0886 4.54527 11.9258 4.82185 11.6279C4.87186 11.574 4.92553 11.5228 4.98042 11.4731C5.37532 11.1155 5.64885 11.0676 6.0962 11.3715C6.87624 11.9016 7.63219 12.4628 8.39637 13.0135C8.77297 13.2848 9.145 13.5613 9.5338 13.846C10.172 13.1557 10.7911 12.4879 11.408 11.8184C12.775 10.3361 14.1405 8.8526 15.5076 7.37025C16.08 6.74932 16.3001 6.72989 16.9814 7.23829C17.0707 7.30484 17.1555 7.37767 17.2378 7.45193C17.4293 7.62416 17.4571 7.81866 17.3171 8.03202Z" fill="white"/>
</g>
<defs>
<clipPath id="clip0">
<rect width="22" height="24" fill="white"/>
</clipPath>
</defs>
</svg>
