<svg width="24" height="24" viewBox="0 0 24 24" fill="none" xmlns="http://www.w3.org/2000/svg">
<path d="M15.2178 9.42855C16.0458 9.42855 16.7178 10.1006 16.7178 10.9286V16.7134C16.7178 17.9639 16.221 19.1633 15.3367 20.0475C14.4525 20.9318 13.2532 21.4286 12.0026 21.4286C10.7521 21.4286 9.55279 20.9318 8.66853 20.0475C7.78427 19.1633 7.2875 17.9639 7.2875 16.7134V10.9286C7.2875 10.1006 7.95864 9.42855 8.7875 9.42855H15.2178ZM3.21436 9.42855L6.97036 9.42684C6.67036 9.78941 6.47664 10.2428 6.43807 10.74L6.4295 10.9286V16.7134C6.4295 17.6846 6.67893 18.5983 7.11521 19.3937C6.528 19.6499 5.88622 19.7559 5.24781 19.702C4.6094 19.6481 3.99447 19.436 3.45851 19.085C2.92256 18.734 2.48247 18.255 2.17797 17.6913C1.87346 17.1276 1.71413 16.4969 1.71436 15.8563V10.9286C1.71521 10.1006 2.38636 9.42855 3.21521 9.42855H3.21436ZM17.0349 9.42684L20.7858 9.42855C21.6138 9.42855 22.2858 10.1006 22.2858 10.9286V15.8571C22.286 16.4976 22.1268 17.128 21.8225 17.6915C21.5182 18.255 21.0784 18.7338 20.5427 19.0849C20.0071 19.4359 19.3924 19.648 18.7543 19.702C18.1161 19.7561 17.4746 19.6504 16.8875 19.3946L16.9355 19.3071C17.3032 18.6103 17.5269 17.8251 17.5681 16.9928L17.5749 16.7134V10.9286C17.5749 10.3577 17.3718 9.83484 17.0349 9.42684ZM12.0001 2.57141C12.394 2.57141 12.7841 2.64901 13.1481 2.79977C13.5121 2.95054 13.8428 3.17152 14.1214 3.45009C14.4 3.72867 14.6209 4.05938 14.7717 4.42336C14.9225 4.78734 15.0001 5.17745 15.0001 5.57141C15.0001 5.96538 14.9225 6.35548 14.7717 6.71946C14.6209 7.08344 14.4 7.41416 14.1214 7.69273C13.8428 7.97131 13.5121 8.19229 13.1481 8.34305C12.7841 8.49381 12.394 8.57141 12.0001 8.57141C11.2044 8.57141 10.4414 8.25534 9.87875 7.69273C9.31614 7.13012 9.00007 6.36706 9.00007 5.57141C9.00007 4.77576 9.31614 4.0127 9.87875 3.45009C10.4414 2.88748 11.2044 2.57141 12.0001 2.57141ZM18.8598 3.42855C19.1975 3.42855 19.5318 3.49507 19.8438 3.62429C20.1558 3.75352 20.4393 3.94293 20.6781 4.18171C20.9168 4.42049 21.1062 4.70396 21.2355 5.01594C21.3647 5.32792 21.4312 5.6623 21.4312 5.99998C21.4312 6.33767 21.3647 6.67205 21.2355 6.98403C21.1062 7.29601 20.9168 7.57948 20.6781 7.81826C20.4393 8.05704 20.1558 8.24645 19.8438 8.37567C19.5318 8.5049 19.1975 8.57141 18.8598 8.57141C18.1778 8.57141 17.5237 8.30049 17.0415 7.81826C16.5593 7.33602 16.2884 6.68197 16.2884 5.99998C16.2884 5.318 16.5593 4.66394 17.0415 4.18171C17.5237 3.69947 18.1778 3.42855 18.8598 3.42855ZM5.14036 3.42855C5.47804 3.42855 5.81242 3.49507 6.1244 3.62429C6.43638 3.75352 6.71985 3.94293 6.95863 4.18171C7.19741 4.42049 7.38682 4.70396 7.51605 5.01594C7.64527 5.32792 7.71178 5.6623 7.71178 5.99998C7.71178 6.33767 7.64527 6.67205 7.51605 6.98403C7.38682 7.29601 7.19741 7.57948 6.95863 7.81826C6.71985 8.05704 6.43638 8.24645 6.1244 8.37567C5.81242 8.5049 5.47804 8.57141 5.14036 8.57141C4.45837 8.57141 3.80432 8.30049 3.32208 7.81826C2.83984 7.33602 2.56893 6.68197 2.56893 5.99998C2.56893 5.318 2.83984 4.66394 3.32208 4.18171C3.80432 3.69947 4.45837 3.42855 5.14036 3.42855Z" fill="white"/>
</svg>
