<svg width="700" height="500" viewBox="0 0 700 500" fill="none" xmlns="http://www.w3.org/2000/svg">
<path d="M683.284 191.249C651.525 82.0698 541.787 3.2573 412.979 0.0962084C344.882 -1.57497 273.225 18.1697 221.053 87.2636C127.791 210.776 226.785 296.128 295.8 336.685C329.143 356.318 359.187 379.926 385.062 406.824C431.679 455.187 521.362 515.285 628.169 421.121C705.583 352.87 704.438 263.974 683.284 191.249Z" fill="#F2F2F2"/>
<path d="M700 358.328C700 410.277 549.277 500 355.977 500C162.678 500 0 412.599 0 360.651C0 308.703 290.228 227.108 355.977 311.879C421.727 396.649 700 306.38 700 358.328Z" fill="#3F3D56"/>
<path opacity="0.1" d="M700 358.328C700 410.277 549.277 500 355.977 500C162.678 500 0 412.599 0 360.651C0 308.703 290.228 227.108 355.977 311.879C421.727 396.649 700 306.38 700 358.328Z" fill="black"/>
<path d="M700 360.651C700 412.599 543.3 454.712 350 454.712C156.7 454.712 0 412.599 0 360.651C0 308.703 284.25 181.82 350 266.59C415.75 351.361 700 308.703 700 360.651Z" fill="#3F3D56"/>
<path opacity="0.1" d="M485.485 410.584C541.971 410.584 587.762 395.507 587.762 376.908C587.762 358.31 541.971 343.232 485.485 343.232C428.999 343.232 383.208 358.31 383.208 376.908C383.208 395.507 428.999 410.584 485.485 410.584Z" fill="black"/>
<path opacity="0.1" d="M74.3835 373.937C104.461 373.937 128.843 365.909 128.843 356.006C128.843 346.103 104.461 338.075 74.3835 338.075C44.3065 338.075 19.9243 346.103 19.9243 356.006C19.9243 365.909 44.3065 373.937 74.3835 373.937Z" fill="black"/>
<path d="M15.0732 278.09C15.0732 315.259 41.7452 345.336 74.7066 345.336L15.0732 278.09Z" fill="#2F2E41"/>
<path d="M74.707 345.336C74.707 307.749 104.471 277.335 141.254 277.335L74.707 345.336Z" fill="#6C63FF"/>
<path d="M36.6797 281.46C36.6797 316.766 53.6879 345.336 74.7068 345.336L36.6797 281.46Z" fill="#6C63FF"/>
<path d="M74.707 345.336C74.707 297.309 109.11 258.445 151.625 258.445L74.707 345.336Z" fill="#2F2E41"/>
<path d="M62.1606 345.81C62.1606 345.81 70.6176 345.583 73.1664 343.996C75.7151 342.409 86.1754 340.515 86.8076 343.059C87.4399 345.604 99.5169 355.715 89.969 355.783C80.4211 355.85 67.784 354.483 65.2401 353.128C62.6963 351.773 62.1606 345.81 62.1606 345.81Z" fill="#A8A8A8"/>
<path opacity="0.2" d="M90.1394 354.897C80.5915 354.964 67.9544 353.597 65.4105 352.242C63.4733 351.21 62.7013 347.509 62.443 345.801C62.2641 345.807 62.1606 345.81 62.1606 345.81C62.1606 345.81 62.6963 351.773 65.2401 353.128C67.7839 354.483 80.4211 355.85 89.969 355.783C92.7251 355.763 93.6771 354.906 93.6248 353.636C93.2419 354.404 92.1908 354.883 90.1394 354.897Z" fill="black"/>
<path opacity="0.1" d="M269.043 290.17C307.808 290.17 339.233 279.823 339.233 267.059C339.233 254.295 307.808 243.948 269.043 243.948C230.278 243.948 198.853 254.295 198.853 267.059C198.853 279.823 230.278 290.17 269.043 290.17Z" fill="black"/>
<path d="M192.6 166.637C192.6 214.543 226.977 253.307 269.459 253.307L192.6 166.637Z" fill="#2F2E41"/>
<path d="M269.46 253.307C269.46 204.863 307.823 165.663 355.231 165.663L269.46 253.307Z" fill="#6C63FF"/>
<path d="M220.447 170.98C220.447 216.485 242.368 253.307 269.458 253.307L220.447 170.98Z" fill="#6C63FF"/>
<path d="M269.46 253.307C269.46 191.407 313.801 141.317 368.598 141.317L269.46 253.307Z" fill="#2F2E41"/>
<path d="M253.289 253.919C253.289 253.919 264.188 253.625 267.473 251.58C270.758 249.535 284.24 247.093 285.055 250.373C285.87 253.653 301.436 266.685 289.13 266.772C276.824 266.858 260.536 265.096 257.258 263.35C253.979 261.604 253.289 253.919 253.289 253.919Z" fill="#A8A8A8"/>
<path opacity="0.2" d="M289.349 265.63C277.043 265.717 260.756 263.954 257.477 262.208C254.98 260.879 253.985 256.107 253.652 253.906C253.422 253.915 253.289 253.919 253.289 253.919C253.289 253.919 253.979 261.604 257.258 263.35C260.536 265.096 276.824 266.858 289.13 266.772C292.682 266.747 293.909 265.642 293.842 264.005C293.348 264.994 291.993 265.611 289.349 265.63Z" fill="black"/>
<path d="M471.904 33.9692H471.904C480.629 33.9692 488.996 36.9992 495.165 42.3925C501.334 47.7859 504.8 55.1008 504.8 62.7281V91.4871H439.009V62.7281C439.009 55.1008 442.475 47.7859 448.644 42.3925C454.813 36.9992 463.18 33.9692 471.904 33.9692L471.904 33.9692Z" fill="#2F2E41"/>
<path d="M499.504 89.7811L499.025 92.4961L497.274 102.454V117.565L477.202 125.852L458.803 127.314L451.555 106.617L450.439 103.429C450.439 103.429 450.763 103.239 451.326 102.913C451.817 102.62 452.497 102.221 453.311 101.743C455.775 100.295 459.433 98.1212 462.706 96.1178C468.281 92.7057 462.706 71.7458 462.706 71.7458L481.105 70.2835C481.105 70.2835 482.777 74.183 484.45 82.4695C485.705 88.6843 493.544 89.6885 497.385 89.8006C498.091 89.8291 498.799 89.8226 499.504 89.7811Z" fill="#FFB9B9"/>
<path d="M440.403 317.903V353.973H451.554L457.129 316.44L440.403 317.903Z" fill="#FFB9B9"/>
<path d="M446.536 341.787L439.846 340.812C439.846 340.812 437.058 360.31 434.27 364.697C431.482 369.084 416.429 387.119 424.792 388.094C433.155 389.069 444.306 388.094 444.863 385.657C445.421 383.219 449.881 368.596 450.439 369.571C450.997 370.546 450.439 380.295 450.439 380.295H452.669V368.596C452.669 368.596 462.148 362.747 459.36 359.822C456.572 356.898 453.784 349.586 453.784 349.586L454.342 342.275L446.536 341.787Z" fill="#2F2E41"/>
<path d="M525.149 317.903V353.973H513.998L508.423 316.44L525.149 317.903Z" fill="#FFB9B9"/>
<path d="M519.018 341.787L525.709 340.812C525.709 340.812 528.496 360.31 531.284 364.697C534.072 369.084 549.126 387.119 540.762 388.094C532.399 389.069 521.248 388.094 520.691 385.657C520.133 383.219 515.673 368.596 515.115 369.571C514.558 370.546 515.115 380.295 515.115 380.295H512.885V368.596C512.885 368.596 503.407 362.747 506.194 359.822C508.982 356.898 511.77 349.586 511.77 349.586L511.212 342.275L519.018 341.787Z" fill="#2F2E41"/>
<path d="M471.626 81.4946C483.328 81.4946 492.813 73.2017 492.813 62.9719C492.813 52.7421 483.328 44.4492 471.626 44.4492C459.925 44.4492 450.439 52.7421 450.439 62.9719C450.439 73.2017 459.925 81.4946 471.626 81.4946Z" fill="#FFB9B9"/>
<path d="M537.973 143.887L524.035 189.219L522.362 205.304L512.326 189.219C512.326 189.219 517.901 181.907 519.017 177.033C520.132 172.158 525.15 146.324 525.15 146.324L509.471 116.858L508.824 115.645L503.405 115.615L497.83 109.279L501.175 101.48V95.6303L499.023 92.4961L497.83 90.7559L499.502 89.781L508.423 88.8062C508.789 88.7807 509.157 88.8021 509.516 88.8695C511.852 89.2448 517.494 91.4871 521.804 103.917C527.38 120.002 537.973 143.887 537.973 143.887Z" fill="#FFB9B9"/>
<path d="M458.8 138.038V167.284L440.401 212.128C440.401 212.128 435.941 230.651 422.559 231.626C409.178 232.601 431.48 209.691 431.48 209.691L445.977 161.435V136.088C445.977 136.088 442.074 122.927 440.959 117.078C440.128 112.71 441.778 108.075 442.67 106.003C442.971 105.301 443.189 104.892 443.189 104.892L450.437 102.942L451.324 102.913L451.552 106.617L452.11 115.615L458.8 138.038Z" fill="#FFB9B9"/>
<path d="M504.521 154.61C504.521 154.61 508.424 165.334 508.982 165.822C509.539 166.309 496.716 168.259 496.716 168.259H472.183L459.917 163.384L461.032 154.123L504.521 154.61Z" fill="#FFB9B9"/>
<path d="M510.655 160.947C510.655 160.947 509.54 171.671 512.328 175.57C515.115 179.47 522.364 186.781 524.594 208.229C526.824 229.676 529.612 310.591 530.727 314.003C531.842 317.415 535.187 321.802 531.842 322.29C528.497 322.777 502.292 328.139 502.292 322.29C502.292 316.44 502.292 314.491 500.619 313.516C498.946 312.541 478.875 236.013 478.875 236.013L460.475 315.465C460.475 315.465 467.724 324.239 456.572 323.264C445.421 322.29 425.907 320.827 428.137 315.953C429.291 313.586 430.223 311.14 430.925 308.641L442.076 220.902C442.076 220.902 444.306 183.857 458.803 164.116L459.918 159.418C459.918 159.418 480.547 160.947 487.795 162.897C495.044 164.847 510.655 160.947 510.655 160.947Z" fill="#2F2E41"/>
<path d="M509.471 116.858C509.003 122.186 506.237 153.962 506.75 157.535C506.75 157.535 509.538 160.46 501.175 158.997C492.811 157.535 468.279 158.997 465.491 159.485C462.704 159.972 459.358 161.922 459.358 158.51C459.358 155.098 460.473 144.862 458.801 143.399C457.128 141.937 448.765 129.264 449.322 125.852C449.724 123.4 445.236 112.15 442.671 106.003C442.972 105.301 443.189 104.892 443.189 104.892L450.438 102.942L451.324 102.913C451.815 102.62 452.495 102.22 453.309 101.743L456.013 113.178L457.128 117.078C457.128 117.078 475.527 117.078 490.024 107.816L497.383 89.8005C498.089 89.8291 498.797 89.8226 499.502 89.781L508.423 88.8062C508.789 88.7807 509.157 88.8021 509.516 88.8695L501.175 110.741L508.824 115.645L509.538 116.103C509.538 116.103 509.516 116.371 509.471 116.858Z" fill="#FF6584"/>
<path d="M486.959 59.3158H457.409L450.718 44.2056H491.977L486.959 59.3158Z" fill="#2F2E41"/>
<path d="M451.961 70.3731C452.848 70.1483 453.011 68.2892 452.326 66.2206C451.64 64.1521 450.365 62.6574 449.478 62.8822C448.59 63.107 448.427 64.9661 449.113 67.0346C449.798 69.1032 451.073 70.5978 451.961 70.3731Z" fill="#FFB9B9"/>
<path d="M494.142 67.0347C494.828 64.9661 494.664 63.107 493.777 62.8823C492.89 62.6575 491.615 64.1522 490.929 66.2207C490.243 68.2892 490.407 70.1483 491.294 70.3731C492.181 70.5979 493.457 69.1032 494.142 67.0347Z" fill="#FFB9B9"/>
<path d="M425.714 223.624H311.482V350.78H425.714V223.624Z" fill="white"/>
<path d="M404.49 256.429H332.701C331.618 256.429 330.74 257.197 330.74 258.144V273.295C330.74 274.242 331.618 275.009 332.701 275.009H404.49C405.574 275.009 406.452 274.242 406.452 273.295V258.144C406.452 257.197 405.574 256.429 404.49 256.429Z" fill="#2F2E41"/>
<path d="M388.518 261.655C389.619 261.655 390.511 260.875 390.511 259.913C390.511 258.951 389.619 258.171 388.518 258.171C387.418 258.171 386.526 258.951 386.526 259.913C386.526 260.875 387.418 261.655 388.518 261.655Z" fill="#6C63FF"/>
<path d="M394.497 261.655C395.598 261.655 396.49 260.875 396.49 259.913C396.49 258.951 395.598 258.171 394.497 258.171C393.397 258.171 392.505 258.951 392.505 259.913C392.505 260.875 393.397 261.655 394.497 261.655Z" fill="#6C63FF"/>
<path d="M400.474 261.655C401.574 261.655 402.466 260.875 402.466 259.913C402.466 258.951 401.574 258.171 400.474 258.171C399.373 258.171 398.481 258.951 398.481 259.913C398.481 260.875 399.373 261.655 400.474 261.655Z" fill="#6C63FF"/>
<path d="M404.49 277.912H332.701C331.618 277.912 330.74 278.68 330.74 279.627V294.778C330.74 295.725 331.618 296.492 332.701 296.492H404.49C405.574 296.492 406.452 295.725 406.452 294.778V279.627C406.452 278.68 405.574 277.912 404.49 277.912Z" fill="#2F2E41"/>
<path d="M388.518 283.138C389.619 283.138 390.511 282.358 390.511 281.396C390.511 280.434 389.619 279.654 388.518 279.654C387.418 279.654 386.526 280.434 386.526 281.396C386.526 282.358 387.418 283.138 388.518 283.138Z" fill="#6C63FF"/>
<path d="M394.497 283.138C395.598 283.138 396.49 282.358 396.49 281.396C396.49 280.434 395.598 279.654 394.497 279.654C393.397 279.654 392.505 280.434 392.505 281.396C392.505 282.358 393.397 283.138 394.497 283.138Z" fill="#6C63FF"/>
<path d="M400.474 283.138C401.574 283.138 402.466 282.358 402.466 281.396C402.466 280.434 401.574 279.654 400.474 279.654C399.373 279.654 398.481 280.434 398.481 281.396C398.481 282.358 399.373 283.138 400.474 283.138Z" fill="#6C63FF"/>
<path d="M404.49 299.395H332.701C331.618 299.395 330.74 300.163 330.74 301.11V316.261C330.74 317.208 331.618 317.975 332.701 317.975H404.49C405.574 317.975 406.452 317.208 406.452 316.261V301.11C406.452 300.163 405.574 299.395 404.49 299.395Z" fill="#2F2E41"/>
<path d="M388.518 304.621C389.619 304.621 390.511 303.841 390.511 302.879C390.511 301.917 389.619 301.137 388.518 301.137C387.418 301.137 386.526 301.917 386.526 302.879C386.526 303.841 387.418 304.621 388.518 304.621Z" fill="#6C63FF"/>
<path d="M394.497 304.621C395.598 304.621 396.49 303.841 396.49 302.879C396.49 301.917 395.598 301.137 394.497 301.137C393.397 301.137 392.505 301.917 392.505 302.879C392.505 303.841 393.397 304.621 394.497 304.621Z" fill="#6C63FF"/>
<path d="M400.474 304.621C401.574 304.621 402.466 303.841 402.466 302.879C402.466 301.917 401.574 301.137 400.474 301.137C399.373 301.137 398.481 301.917 398.481 302.879C398.481 303.841 399.373 304.621 400.474 304.621Z" fill="#6C63FF"/>
</svg>
